<svg xmlns="http://www.w3.org/2000/svg" width="464.525" height="699.413" viewBox="0 0 464.525 699.413">
  <g id="Doctor" transform="translate(-192.773 -85.989)">
    <path id="Path_1" data-name="Path 1" d="M634.72,290.674a17.376,17.376,0,0,1,1.893-4.32c2.147-2.895,5.561-2.894,7.643.063a14.144,14.144,0,0,1,2.307,6.156c.183,1.215.328,2.435.527,3.928,1.246-.6,1.491-1.715,2.149-2.431,2.454-2.669,5.376-2.29,6.648,1.1a25.175,25.175,0,0,1,1.24,11.514,60.913,60.913,0,0,1-3.682,14.98c-2.448,6.612-4.574,13.333-6.908,19.981a90.6,90.6,0,0,1-6.13,13.15,316.509,316.509,0,0,1-29.5,45.156,135.123,135.123,0,0,1-16.752,17.6c-10.436,9.2-21.268,17.92-33.281,25.012a121.594,121.594,0,0,1-37.8,14.587,59.685,59.685,0,0,1-25.994-.616c-1.008-.24-2.026-.439-3-.648-.661.77-.255,1.493-.1,2.176,4.87,21.765,9.9,43.494,14.4,65.342,2.847,13.8,5.88,27.573,8.418,41.44a175.721,175.721,0,0,1,2.937,29.5,55.315,55.315,0,0,1-.92,11,6,6,0,0,0,.916,4.41c6.181,11.094,10.466,22.888,10.538,35.658a105.376,105.376,0,0,1-10.182,46.172c-3.922,8.278-7.342,16.768-10.878,25.209-.608,1.451-1.009,2.988-1.516,4.482a6.62,6.62,0,0,0,.692,5.742c1.114,1.906,2.106,3.885,3.114,5.852a17.2,17.2,0,0,1,2.024,8.192,9.186,9.186,0,0,1-8.516,9.287c-5.565.621-10.049-1.883-14.237-4.994-4.85-3.6-7.929-8.644-10.562-13.972a2.791,2.791,0,0,1,.276-3.008c6.112-7.915,7.617-17.414,9.252-26.852a188.422,188.422,0,0,0,2.814-28.879c.379-21.367-6.7-40.023-20.351-56.314a106.889,106.889,0,0,0-11.927-12.608,6.071,6.071,0,0,0-4.262-1.559c-5.253-.008-10.531.593-15.759-.387-1.1-.206-1.575.234-1.556,1.308.01.632.012,1.264.039,1.895a236.142,236.142,0,0,1-1.96,43.177c-4.044,28.57-12.179,55.877-26.705,81.032a421.6,421.6,0,0,0-20.494,39.84,51.913,51.913,0,0,1-6.226,10.228,16.189,16.189,0,0,1-6.863,5.411,7.742,7.742,0,0,1-9.21-1.982,9.859,9.859,0,0,0-2.731-2.481c-1.42-.7-1.587-2.4-1.331-3.915,1.192-7.053,2.435-14.078,5.179-20.766,2.135-5.206,2.531-10.852,3.29-16.354,2.1-15.215,3.823-30.481,5.916-45.7,1.82-13.236,3.552-26.482,4.864-39.776a422.823,422.823,0,0,0,1.881-43.21,6.748,6.748,0,0,0-.7-3.03A44.8,44.8,0,0,1,379.34,587.9a315.146,315.146,0,0,1,1.758-34.673c1.957-19.375,5.005-38.583,8.154-57.786,1.635-9.967,2.637-20.019,3.536-30.078a9.561,9.561,0,0,0-.056-1.269c-1.225-.225-2.065.511-2.959.965-12.166,6.181-25.241,9.188-38.651,10.868a267.526,267.526,0,0,1-55.794,1.042A121.405,121.405,0,0,1,271.1,472.8a94.7,94.7,0,0,1-17.59-7.713c-20.953-11.127-37.411-27.126-50.305-46.859a71.885,71.885,0,0,1-9.9-21.381,14.18,14.18,0,0,1,1.052-10.426c2.344-4.5,6.991-5.995,10.605-1.459.254.318.558.6.971,1.033.662-.639.362-1.391.409-2.029a11.936,11.936,0,0,1,1.487-5.431c1.947-3.233,5.291-3.951,8.374-1.783.76.535,1.424,1.208,2.313,1.973A12.415,12.415,0,0,1,220.6,375.2a5.294,5.294,0,0,1,7.86-.422,11.643,11.643,0,0,1,3.075,4.715c.691,1.744,1.34,3.505,2.057,5.389.8-.673,1.406-1.255,2.083-1.741,3.361-2.414,7.205-1.255,8.667,2.664a9.463,9.463,0,0,1-.608,7.932c-1.955,3.816-1.946,3.883,1.585,6.233a97.894,97.894,0,0,0,11.565,6.713c-.8-6.06-.62-11.649,1.737-16.96a24.291,24.291,0,0,1,11.327-11.834c-.13-.312-.152-.542-.277-.642-12.271-9.68-19.877-22.728-26.135-36.655-4.367-9.717-7.774-19.813-9.16-30.429-2.041-15.646.229-30.343,11.191-42.5a13.554,13.554,0,0,0,3.839-9.78,114.527,114.527,0,0,1,.909-17.326c2.778-17.534,11.829-30.51,27.535-38.887,7.274-3.88,15.034-6.554,22.655-9.583,2.346-.933,4.742-1.74,7.085-2.68a24.876,24.876,0,0,0,12-9.829c3.945-6.108,6.21-12.827,8.107-19.762,2.69-9.837,4.934-19.811,8.653-29.346a58.225,58.225,0,0,1,21.429-27.1c9.318-6.48,19.835-7.431,30.525-4.441,7.952,2.224,13.243,7.908,16.6,15.386.473,1.053.909,2.122,1.365,3.188,1.18.074,1.269-.985,1.672-1.622,4.879-7.707,10.484-14.824,17.828-20.305a45.873,45.873,0,0,1,37-8.728c9.951,1.833,16.971,8.009,21.641,16.855a35.222,35.222,0,0,1,3.649,11.7c.178,1.283.606,1.437,1.829,1.3,10.1-1.142,18.487,1.883,24.444,10.437,3.084,4.429,5.8,9.051,6.322,14.6.073.769.182,1.384,1.189,1.525,8.7,1.214,12.265,7.418,14.09,14.992,1.784,7.4.028,14.451-3.18,21.136a49.018,49.018,0,0,1-14.1,17.989c-.49.379-.932.82-1.519,1.342,2.595,1.254,5.036,2.381,7.428,3.6a48.838,48.838,0,0,1,9.833,6.822c7.209,6.284,10.447,14.323,10.586,23.74.13,8.862-1.021,17.646-1.674,26.459-.276,3.732-.04,7.274,2.4,10.465,1.107,1.449,2.092,2.043,3.9,1.734,3.421-.584,6.874-.984,10.319-1.417a37.5,37.5,0,0,1,9.769.12A12,12,0,0,1,579.7,281.6a3.925,3.925,0,0,1-2.582,3.964c-1.316.533-1.362,1.331-1.129,2.486,2.564,12.714,3.437,25.646,4.807,38.508a52.632,52.632,0,0,1-1.728,20.026,24.167,24.167,0,0,1-1.188,3.258c-.795,1.777-1.809,3.292-.716,5.539.868,1.783-.158,3.932-.731,5.839-4.108,13.684-9.487,26.763-18.394,38.135.237.757.69.111,1.037.16,3.177-1.522,5.678-3.933,8.2-6.3A125.3,125.3,0,0,0,584.1,373.64,298.789,298.789,0,0,0,602.264,344.5c4.538-8.406,7.186-17.436,9.457-26.629a2.489,2.489,0,0,0-.524-2.3,15.782,15.782,0,0,1-2.063-3.885,10.724,10.724,0,0,1-.787-4.939c.3-2.509,1.142-4.782,3.614-5.891,2.534-1.138,4.7-.029,6.685,1.528.572.449,1.083.975,1.731,1.566.869-.734.6-1.747.68-2.585a41.477,41.477,0,0,1,1.146-7.464,12.363,12.363,0,0,1,3.176-5.726c2.865-2.776,6.012-2.377,8.107,1.037a12.36,12.36,0,0,1,.651,1.431,1.227,1.227,0,0,1,.21,1.112C634.442,291.389,634.385,290.964,634.72,290.674Z" fill="#4c0a2a"/>
    <path id="Path_2" data-name="Path 2" d="M559.079,399.519a3.057,3.057,0,0,1-.609.591c-.394.212-.933.74-1.242.27-.208-.317.294-.857.814-1.021Z" fill="#ddcdd4"/>
    <path id="Path_3" data-name="Path 3" d="M634.72,290.674c.112.315.089.767-.187.792-.6.052-.448-.447-.4-.817C634.331,290.66,634.526,290.669,634.72,290.674Z" fill="#a07485"/>
    <path id="Path_4" data-name="Path 4" d="M342.19,320.472c-8.475,3.953-16.965,7.874-25.417,11.875-3.224,1.527-6.361,3.239-9.9,5.053,9.68-23.535,11.8-47.122,3.319-71.245,1.132-.942,2.591-.718,3.889-.934,11.861-1.978,22.322-7.287,32.414-13.5.089-.056.175-.117.262-.176,3.921-2.667,7.907-4.709,12.931-5.01,9-.539,17.373-3.893,25.813-6.863,13.619-4.792,25.84-12.2,37.956-19.832a10.581,10.581,0,0,1,5.811-1.84c4.315-.054,8.5-1.311,12.7-2.246a103.08,103.08,0,0,0,16.005-4.77,3.933,3.933,0,0,1,3.558.045c2.6,1.266,5.556,1.081,8.353,1.171,7.457.241,14.948.507,22.248-1.588a1.819,1.819,0,0,1,2.129.771c13.321,15.076,25.449,31.09,37.285,47.333,3.269,4.488,6.393,9.081,9.789,13.918a130.337,130.337,0,0,1-14.658,2.875c-3.142-2.331-5.546-5.437-8.45-8.024-6.931-6.176-15.156-9.832-24.01-12.064a153.99,153.99,0,0,0-36.762-5.027c-13.743-.093-27.311.784-40.677,4.059-15.319,3.754-29.555,9.7-41.337,20.56a108.4,108.4,0,0,0-14.7,4.515,50.237,50.237,0,0,0-13.859,9.15,8.628,8.628,0,0,0-1.289,1.379c-.974,1.354-2.369,2.785-.951,4.474,1.535,1.829,3.02.406,4.4-.517,2.442-1.637,4.838-3.348,7.352-4.87,1.218-.738,2.423-1.776,4.058-1.149,1.016,1.828-.577,2.669-1.478,3.687a88.651,88.651,0,0,0-16.08,25.752A6.913,6.913,0,0,0,342.19,320.472Z" fill="#bd9c6b"/>
    <path id="Path_5" data-name="Path 5" d="M259.3,236.354l.121-.628c.311-.358.169-.9.517-1.244,5.846-13.157,16.253-21.446,29.077-27.085,5.4-2.373,11.147-3.786,16.719-5.687,7.4-2.526,12.886-7.23,17.136-13.714,5.775-8.811,9.567-18.362,12.38-28.5a153.122,153.122,0,0,1,12.577-31.943,67.681,67.681,0,0,1,11.731-15.966,22.244,22.244,0,0,1,13.3-6.59c6.7-.855,13.018-.3,18.385,4.41a18.331,18.331,0,0,1,5.864,8.795c2.846,8.624,1.377,17.171-.463,25.71a4.877,4.877,0,0,1-.522,1.478c-.3.51-.511,1.248-1.29,1.124-.753-.12-.873-.85-.975-1.45-.421-2.483.185-5.035-.479-7.5-.291-.844-.235-1.847-1.374-2.806a56.328,56.328,0,0,0-.98,7.335,154.712,154.712,0,0,1-2.488,21.893,12.913,12.913,0,0,1-1.414,4.158,216.617,216.617,0,0,1-17.374,28.524c-8.341,11.638-17.133,22.942-28.915,31.4a109.46,109.46,0,0,1-52.759,19.979,50.952,50.952,0,0,1-17.473-1.125c-1.494-.352-3.144-.746-3.61-2.628a6.163,6.163,0,0,1,1.026-3.569,46.429,46.429,0,0,1,18.818-20.19,21.466,21.466,0,0,0,3.676-2.422c.542-.475,1.257-1.045.717-1.833-.412-.6-1.164-.3-1.741-.059a33.778,33.778,0,0,0-4.748,2.46,48.764,48.764,0,0,0-19.429,22.516,4.42,4.42,0,0,1-.657,1.073c-1.311,1.169-2.309.36-3.156-.6A7.789,7.789,0,0,1,259.3,236.354Z" fill="#ed7548"/>
    <path id="Path_6" data-name="Path 6" d="M374.991,274.8a16.993,16.993,0,0,1,4.594-4.606,98.573,98.573,0,0,1,25.04-13.081,128.151,128.151,0,0,1,25-6.059c5.885-.872,11.81-1.806,17.836-1.464,3.674.208,7.376.167,11.055.008a92.775,92.775,0,0,1,18.474,1.388,171.24,171.24,0,0,1,17.207,3.5,56.214,56.214,0,0,1,32.261,20.121c.181.209.153.6.222.906-6.127,1.469-12.244,2.991-18.386,4.4A92.171,92.171,0,0,0,481.115,290.6c-5.36,3.217-7.4,7.77-6.539,13.828a9.739,9.739,0,0,1,.264,3.388c-.429.431-.806.179-1.135-.034-9.047-5.871-18.741-6.71-29.058-4.16-11.113,2.747-20.15,8.752-27.991,16.84-.5.516-.824,1.228-1.6,1.462a7.563,7.563,0,0,1-1.456-2.765c-4-8.863-11.275-12.621-20.561-13.294a44.947,44.947,0,0,0-15.851,2.048,291.568,291.568,0,0,0-34.081,12.339,5.422,5.422,0,0,1-.917.219c-1.5-.207-.839-1.228-.6-1.885a84.8,84.8,0,0,1,5.324-11.417,109.041,109.041,0,0,1,9.388-13.719,37.344,37.344,0,0,1,2.583-2.764c.706-.755,1.651-1.375,1.514-2.619.257-1.682,1.785-1.946,2.951-2.468,2.961-1.325,5.986-2.508,9.044-3.6C377.879,280.055,378.093,279.487,374.991,274.8Z" fill="#d8a86d"/>
    <path id="Path_7" data-name="Path 7" d="M384.421,419.628c.227-.8.474-1.606.676-2.418a2.475,2.475,0,0,1,2.15-2c4.562-.864,8.772-2.913,13.281-3.978a17.362,17.362,0,0,0,4.876-2.193c3.335-2.007,6.639-4.064,10-6.03,7.029-4.113,10.819-10.285,12.112-18.255a97.008,97.008,0,0,0-.37-30.779c-.033-.207-.125-.4-.152-.613-.54-4.108-1.229-3.053,2.4-5.005a73.173,73.173,0,0,1,21.727-7.287c7.453-1.368,14.88-2.8,22.5-2.611a39.186,39.186,0,0,1,5.958.564,3.26,3.26,0,0,1,2.966,2.692c2.044,7.612,4.282,15.171,6.453,22.748a56.044,56.044,0,0,0,3.03,7.924c2.623,5.71,7.242,8.515,13.284,9.342,5.636.772,11.1-.241,16.528-1.581,5.1-1.259,10.028-3.1,15.006-4.769,2.312-.076,1.2,1.281.7,2a58.107,58.107,0,0,1-5.615,6.8c-7.295,7.714-15.953,13.655-24.941,19.174-20.738,8.444-41.486,16.852-63.756,20.538a25.292,25.292,0,0,1-5.02.427c-4.737-.351-9.391.747-14.127.685a266.539,266.539,0,0,1-35.756-2.562C386.688,422.2,384.271,422.56,384.421,419.628Z" fill="#b0dace"/>
    <path id="Path_8" data-name="Path 8" d="M417.286,489.8a290.509,290.509,0,0,0,9.2,35.382c2.321,7.025,5.767,13.534,8.659,20.3,2.859,2.328,2.282,5.631,2.441,8.708a274.311,274.311,0,0,1-.2,31.867c-.254,3.918-.357,8.025-2.855,11.451-.744,5.664-4.7,9.49-8,13.618-5.955,7.444-13.8,8.94-22.742,6.826a16.532,16.532,0,0,1-11.027-8.189,49.9,49.9,0,0,1-7.024-23.315,266.875,266.875,0,0,1,1.135-32.152c1.7-20.763,5.1-41.308,8.112-61.9.865-5.924,1.428-11.892,2.1-17.843a17.36,17.36,0,0,1,.64-3.72c4.5-.753,9.011-.35,13.516-.045a2.29,2.29,0,0,1,1.662,1.281c.279,3.686-.209,7.35-.356,11.022-.485,12.088-.756,24.176-.287,36.268.126,3.255.488,6.5.78,9.749.1,1.117-.1,1.771-1.446,1.792-9.99.159-19.286,12.937-14.309,25.057,2.927,7.128,8.294,11.762,14.922,15.16a7.615,7.615,0,0,0,4.329.61c6.449-.736,13.742-4.812,14.637-14.069a28.211,28.211,0,0,0-6.253-20.909,14.127,14.127,0,0,0-6.229-4.685,2.527,2.527,0,0,1-1.779-2.556,231.261,231.261,0,0,1-.79-41.575C417.751,487.784,416.523,489.406,417.286,489.8Z" fill="#eff7f5"/>
    <path id="Path_9" data-name="Path 9" d="M384.421,419.628c.449,1.743,2.021,1.705,3.276,1.848,8.091.922,16.176,1.774,24.337,2.118,5.229.221,10.458.284,15.686.469,2.739.1,5.367-.967,8.121-.652,1.038.119,2.093.091,3.14.131-.442,1.447-1.772,1.382-2.846,1.516-5.944.74-11.866,1.721-17.876,1.788-4.566.05-9.068.848-13.61,1.027,37.733,1.42,72.6-9.375,106.279-25.083a.9.9,0,0,0,.413-.409,2.061,2.061,0,0,0-.909.219c-1.125.285-2.244.94-3.35-.016,1.591-1.725,3.8-2.521,5.7-3.788a104.726,104.726,0,0,0,19.049-15.661,54.537,54.537,0,0,0,5.545-6.756c.481-.725.022-.869-.535-1,2.912-1.525,2.886-1.5,4.763.877,4.408,5.592,7.335,12,10.241,18.425a2.354,2.354,0,0,1-.418,2.815,72.517,72.517,0,0,1-17.915,15.777,204.537,204.537,0,0,1-51.632,23.1c-13.422,3.974-26.856,7.71-40.638,10.154-6.729,1.193-13.476,2.28-20.295,2.81-2.669.207-5.435-.87-8.005.626-10.3.38-20.606.624-30.893-.385-1.255-.123-2.516-.185-3.773-.288-2.039-.168-2.22-.3-1.9-2.268a92.816,92.816,0,0,1,1.758-9.284A151.618,151.618,0,0,1,384.421,419.628Z" fill="#88bdbb"/>
    <path id="Path_10" data-name="Path 10" d="M311.126,372.263c-1.026-3.748-2.044-7.5-3.084-11.243a15.293,15.293,0,0,0-.816-2.383c-.462-.987-1.064-1.863-2.423-1.4a3.57,3.57,0,0,1-.926.072c-5.5.326-7.435-3.667-8.171-7.746a1.822,1.822,0,0,1,.735-1.93,33.728,33.728,0,0,1,2.814-2.026,212.075,212.075,0,0,1,24.07-13.085c12.749-5.754,25.421-11.678,38.616-16.374a18.04,18.04,0,0,1,4.177-1.331c-.155,3.938.578,4.53,4.569,3.459,3.54-.95,6.961-2.33,10.677-2.636,1.283-.106,3.031-.245,3.138-2,.1-1.623-1.658-1.617-2.706-2.191a3.168,3.168,0,0,1-.52-.355.673.673,0,0,1,.011-.828l-.008.006c.944-.73,2.273.27,3.163-.705l-.05.037a54.111,54.111,0,0,1,11.514.021l-.038-.023c.716.813,1.812.07,2.589.631l-.051-.031c.5.738,1.377.246,1.99.613l-.065-.048c.387.859,1.365.24,1.889.755l-.016-.011a.7.7,0,0,1,.056.838,33.894,33.894,0,0,1-3.477,2.239c-2.073.6-4.214.144-6.3.4-.266.062-.538.116-.8.178a21.371,21.371,0,0,0-2.268.43c-.225.088-.458.156-.69.222a13.684,13.684,0,0,0-1.348.413,5.472,5.472,0,0,1-.663.24,12.635,12.635,0,0,0-1.352.457c-.23.113-.463.208-.7.306a10.279,10.279,0,0,0-1.74,1.121c-7.245,2.906-14.793,4.877-22.192,7.3-13.207,4.324-26.253,9.079-39.056,14.487a23.654,23.654,0,0,0-4.366,2.53c-4.188,2.945-5.736,6.691-5.015,11.974,1.779,13.028,6.391,25.08,12.025,36.77,5.343,11.086,17.159,16.733,29.183,15.648,12.425-1.121,23.963-5.494,35.9-8.4a158.25,158.25,0,0,0,21.923-7.051,5.889,5.889,0,0,0,3.918-4.142c1.16-4.382,1.984-8.7,1.449-13.365-.729-6.357-.086-12.808-.786-19.22a127.421,127.421,0,0,0-6.7-30.445c-1.181-3.209-3.727-5.293-5.851-7.738-.136-1.518-.62-2.988-.66-4.525a.53.53,0,0,1,.789,0c3.871,1.831,5.773,5.334,7.515,8.943.591,1.224.927,2.568,1.479,3.813.894,2.018,1.869,2.263,3.65.9a15.261,15.261,0,0,0,1.738-1.807,49.531,49.531,0,0,1,8.871-7.948,3.5,3.5,0,0,0,4.319,0,42.681,42.681,0,0,1,24.293-6.578c2.852.071,5.158-.527,6.83-2.921,4.362.719,8.011,2.966,11.585,5.384a7.512,7.512,0,0,0,2.715,1.54c1.537.292,2.2-.3,1.837-1.866a61.909,61.909,0,0,1-1.038-6.521c-.673-5.651,1.147-9.9,6.567-12.261.569-.248,1.126-.526,1.688-.791,1.395,2.524,3.475,2.566,5.852,1.649a22.47,22.47,0,0,0,3.918-1.88c2.772-1.745,2.807-2.253.368-4.357,4.329-2.243,9.081-3.179,13.753-4.269,10.418-2.429,20.826-4.92,31.385-6.706a11.432,11.432,0,0,1,4.347-.375,2.989,2.989,0,0,0,1.527-.2c4.787-1.717,9.794-1.964,14.794-2.27.495,2.132.318,4.667,3.358,5.2,1.368.239,2.725.486,3.835-.544,1.219-1.131.387-2.279-.164-3.389a1.538,1.538,0,0,1-.144-1.2,7.889,7.889,0,0,1,7.7,6.9c.194,1.156-.126,1.8-1.291,2.052a9.517,9.517,0,0,0-1.794.582c-2.031.884-2.275,1.65-.872,3.419a7.754,7.754,0,0,1,1.242,3.823c.913,5.374,1.834,10.755,2.478,16.166.742,6.241,1.943,12.435,2.093,18.742.034,7.212.279,14.433-2.439,21.349a13.038,13.038,0,0,1-4.863,6.042c-17.57,12.3-36.867,20.17-58.248,22.694-9.881,1.166-14.3-1.388-18.446-10.468a112.738,112.738,0,0,1-6.594-20.409,118.441,118.441,0,0,0-8-23.553,8.99,8.99,0,0,0-4.047-2.9c-11.094-5.112-22.512-5.489-33.644-.81a49.256,49.256,0,0,0-20.885,16.782,5.164,5.164,0,0,0-.545,5.537,70.924,70.924,0,0,1,4.8,23.64,59.179,59.179,0,0,1-2.893,23.845,21.561,21.561,0,0,1-9.009,11.054c-11.42,7.576-24.1,11.749-37.531,14.017a129.33,129.33,0,0,1-27.676,1.217c-12.2-.572-21.274-6.236-26.769-17.5C317.334,388.232,313.338,380.633,311.126,372.263Z" fill="#fce0ae"/>
    <path id="Path_11" data-name="Path 11" d="M403.32,167.4c.641-4.9,2.207-9.617,2.816-14.534.439-3.543.963-7.072,1.161-10.642.157-2.829.394-5.653.552-8.482a6.339,6.339,0,0,1,.728-2.394,93.555,93.555,0,0,1,18.254-26.3c9.128-9.128,20.148-12.507,32.844-10.735,4.265,3.633,5.894,8.623,7.13,13.82a11.877,11.877,0,0,0,1.99,6.942,38.061,38.061,0,0,1,1.226,12.764,3.891,3.891,0,0,1-1.593,3.258,11.15,11.15,0,0,0-2.319,4.76c-4.4,15.325-12.515,28.515-23.091,40.294-1.976,2.2-3.323,4.824-4.964,7.253a32.682,32.682,0,0,1-19.143,10.674c-5.969,1.089-9.871-1.216-12.478-6.793A33.8,33.8,0,0,1,403.32,167.4Z" fill="#ed7548"/>
    <path id="Path_12" data-name="Path 12" d="M427.5,673.088c-2.386,11.022-6.138,21.615-10.132,32.129-4.279,11.262-10.608,21.475-16.417,31.955-3.16,5.7-6.383,11.373-8.988,17.363-.279.644-.4,1.446-1.206,1.717-.918-.106-1.062-.949-1.506-1.491a18.955,18.955,0,0,0-11.211-7.109c-1.825-.353-2.032-.663-1.645-2.55,1.2-5.858,2.269-11.737,3.155-17.652.947-6.324,2.1-12.619,2.925-18.957.906-6.977,2.386-13.847,3.51-20.781,1.577-9.727,3.616-19.388,4.241-29.255.093-1.461.4-2.907.6-4.361.457-2.055,2.116-2.745,3.838-3.3,9.386-3.021,17.685-.631,24.976,5.5,4.224,3.551,7.588,7.866,8.458,13.612l-.122,1.9C427.691,672.184,427.809,672.715,427.5,673.088Z" fill="#a65939"/>
    <path id="Path_13" data-name="Path 13" d="M491.177,465.135c1.764,6.067,2.731,12.316,4.23,18.444,4.323,17.678,8.1,35.48,11.911,53.273,2.6,12.134,5.381,24.242,7.016,36.563,1.289,9.715,2.208,19.443,1.123,29.265a26.283,26.283,0,0,1-5.306,12.985c-4.109,5.509-12.95,5.959-18.671,1.081a27.407,27.407,0,0,1-6.471-8.868c-2.534-5.052-3.633-10.5-4.5-16.028a131.67,131.67,0,0,1-1.276-21.084c.04-8.528.061-17.058-.471-25.577-.1-1.583-.191-3.069,1.481-4.159.936-.61,1.138-1.973,1.53-3.06.889-2.47,1.757-4.947,2.662-7.5,4.7,5.688,6.9,22.765,4.1,31.827-1.471-.753-2.973-1.684-4.618-.492a5.647,5.647,0,0,0-2.221,4.969,13.543,13.543,0,0,0,1.753,6.961,4.4,4.4,0,0,0,7.406.63,8.318,8.318,0,0,0,1.859-6.5,10.126,10.126,0,0,1,.329-3.375c3.038-13.582,1.484-26.562-5.437-38.742a4.2,4.2,0,0,1-.524-3.531c1.014-3.647,1.926-7.324,2.83-11,2.3-9.337,2.206-18.762,1.075-28.241-.662-5.548-1.822-10.993-3.009-16.439C488.366,464.517,489.555,464.332,491.177,465.135Z" fill="#eff7f5"/>
    <path id="Path_14" data-name="Path 14" d="M467.318,130.829a3.529,3.529,0,0,0,1.914-3.455,52.55,52.55,0,0,0-1.281-12.4c2.087-3.146,1.733-4.462-1.832-6.812a41.678,41.678,0,0,0-6.444-13.86c11.551,2.356,17.941,10.045,20.786,20.879,2.524,9.615.443,18.93-2.969,28.047-3.61,9.642-9.172,18.205-14.542,26.877-4.322,6.979-8.7,13.932-14.072,20.172-4.8,5.58-9.527,11.255-15.477,15.706-1.951,1.459-3.251,3.54-5.168,5.065-5.459,4.342-11.505,7.761-17.391,11.436A169.829,169.829,0,0,1,372.4,239.867c-2.5.8-5.065,1.391-7.607,2.053a6.5,6.5,0,0,1-1.211.092c-.421-.916.351-1.172.736-1.544a104.165,104.165,0,0,0,17.78-23.641,271.7,271.7,0,0,0,16.157-33.876c1.839-4.6,3.07-9.391,4.475-14.127a2.931,2.931,0,0,1,.586-1.428,69.955,69.955,0,0,0,1.99,14.577,20.285,20.285,0,0,0,2.008,5.275c3.445,6.114,6.931,7.135,13.092,5.759,5.7-1.273,10.6-4.4,15.219-7.964.881-.679,1.079-1.76,1.963-2.331,2.277.064,3.991-1.222,5.452-2.657,12.614-12.393,21.807-26.82,26.114-44.154C469.721,133.635,469.341,132.011,467.318,130.829Z" fill="#b86848"/>
    <path id="Path_15" data-name="Path 15" d="M394.039,137.132c1.009,1.642.44,3.467.581,5.206.093,1.142.018,2.3.018,3.492,1.009-.3.976-1.2,1.1-1.858,1.208-6.251,2.238-12.515,2.027-18.934-.076-2.307-1.006-4.509-.663-6.839a32.042,32.042,0,0,1,3.214,13.341c.728,14.547-1.861,28.664-5.565,42.646a129.249,129.249,0,0,1-8.047,20.865c-5.829,12.651-12.355,24.888-21.576,35.466a71.626,71.626,0,0,1-13.414,12.4c-9.316,6.356-18.866,12.291-29.678,15.846-5.907,1.943-12.1,2.63-18.129,4.008a3.3,3.3,0,0,1-2.385-.54,55.7,55.7,0,0,0-23.948-6.087,41.422,41.422,0,0,0-17.3,2.857,11.8,11.8,0,0,1-3.546,1.19c-.79-.519-.556-1.314-.56-2-.027-5.883-.322-11.793,1.313-17.546.425-1.495.668-3.091,1.814-4.292a41.363,41.363,0,0,0,2.336,4.337c.563.817,1.132,2.211,2.67,1.35,1.075.876-.107,2.29.849,3.275,1.207.416,1.086-1.808,2.371-1.346.1,1,.835,1.427,1.661,1.679a23.322,23.322,0,0,0,6.736,1.466c2.727,0,5.379.887,8.143.6,8.026-.849,15.985-1.972,23.728-4.4a111.037,111.037,0,0,0,28.016-12.724A88.7,88.7,0,0,0,354.1,214.828c4.5-5.137,8.965-10.287,12.956-15.808,4.979-6.888,9.676-13.974,13.958-21.337,1.838-3.161,3.118-6.639,5.419-9.531,1.274,1.878.182,3.674-.3,5.426-1.438,5.27-3.35,10.4-4.629,15.722-.138.575-.54,1.139-.226,1.848,6.943-10.37,9.369-22.155,11.185-34.149.806-5.33.562-10.689.639-16.043C393.125,139.633,392.813,138.181,394.039,137.132Z" fill="#b86848"/>
    <path id="Path_16" data-name="Path 16" d="M526.566,426.425a107.1,107.1,0,0,1,14.865-8.222,113.235,113.235,0,0,0,30.082-21.111c6.691-6.537,13.564-12.911,19.336-20.341,3.037-3.908,5.554-8.153,8.346-12.218a2.084,2.084,0,0,1,1.825.124c5.988,3.351,12.714,3.245,19.225,4.163,1.21.17,2.875-.412,3.2,1.6a45.826,45.826,0,0,1-4.907,7.3,401.074,401.074,0,0,1-37.8,43.151A116.7,116.7,0,0,1,521.328,452.8a14.427,14.427,0,0,1-4.06.427c-1.776-.157-.912-1.461-.7-2.08,2.608-7.553,5.664-14.943,8.277-22.5C525.17,427.718,526.042,427.206,526.566,426.425Z" fill="#eff7f5"/>
    <path id="Path_17" data-name="Path 17" d="M262.5,263.512a35.034,35.034,0,0,1,16.656-2.411,54.9,54.9,0,0,1,17.7,4.267c3.893,1.689,7.268,4.229,10.946,6.263.978.541,1.058,1.549,1.311,2.415a62.133,62.133,0,0,1,2.7,15.17,97.023,97.023,0,0,1-10.941,51.222,4.363,4.363,0,0,1-1.8,2.125,5.781,5.781,0,0,0-.777.541c-5.448,4.154-5.647,4.647-3.833,11.424a3.689,3.689,0,0,1-.387,2.7A86.693,86.693,0,0,1,283.623,374.1a3.533,3.533,0,0,1-2.65,1.4,10.039,10.039,0,0,1-8.729-2.761,79.731,79.731,0,0,1-12.111-14.485,131.183,131.183,0,0,1-18.063-40.1,9.57,9.57,0,0,1-.416-3.42c1.708,0,2.149,1.5,2.855,2.558a48.027,48.027,0,0,0,8,9.306c5.285,4.714,11.254,6.07,18.171,4.114,2.484-.7,3.249-2.961,5.147-4.053,1.142.961.291,2.636,1.281,3.734,1.078-1.024.844-2.333,1.035-3.529.168-1.055-.21-2.411,1.373-2.78a1.568,1.568,0,0,0,2.445.088c10.553-9.306,16.882-20.818,18.269-34.9.506-5.139-1.253-9.734-3.719-14.116-.4-2.216,2.29-2.734,2.764-4.672-1.564-.482-2.249.573-3.1,1.228-.946.729-1.694,1.966-3.212,1.272-7.827-5.756-16.483-8.932-26.307-8.6C265.238,264.421,263.691,264.713,262.5,263.512Z" fill="#b86848"/>
    <path id="Path_18" data-name="Path 18" d="M296.637,274.9c3.087,3.178,4.136,7.16,4.4,11.41.4,6.539-1.43,12.647-3.929,18.564A58.115,58.115,0,0,1,285.9,321.818a62.718,62.718,0,0,1-5.6,4.812c-1.061-.748-.509-1.715-.819-2.442-.959-.821-.4-2.191-1.269-3.3-1.994,1.484-.767,4.377-2.547,5.834-.171,3.293-2.649,4.1-5.2,4.852-7.224,2.144-13.45.3-18.893-4.7a47.022,47.022,0,0,1-8.052-9.652c-.552-.879-1.24-1.671-1.865-2.5-1.718-4.648-1.646-9.544-1.579-14.346a43.9,43.9,0,0,1,6.39-23.121,67.924,67.924,0,0,1,7.638-9.62c2.092-2.293,5.3-3.335,8.4-4.127,2.3,0,4.612-.052,6.917-.005,8.55.175,16.1,3.249,23.061,8.015a2,2,0,0,1,1.029,1.473c.352,1.53-.907,2.249-1.666,3.172-7.964,9.689-12.094,21.038-14.433,33.169a4.163,4.163,0,0,0-.067,1.255,1.165,1.165,0,0,0,.548.995c1.28-.725,1.253-2.2,1.493-3.4a81.178,81.178,0,0,1,5.958-18.562c2.5-5.347,5.518-10.37,9.926-14.424a2.765,2.765,0,0,1,.895-.312C296.319,274.889,296.478,274.893,296.637,274.9Z" fill="#ed7548"/>
    <path id="Path_19" data-name="Path 19" d="M365.559,468.877a70.988,70.988,0,0,1-14.234,2.427c-13.071,1.135-26.161,2.034-39.3,1.935-11-.082-21.657-2.308-32.177-5.3a72.434,72.434,0,0,1-13.6-4.868c-.219-.129-.434-.264-.645-.407l0,0c-.382-3.389,1.4-6.287,2.254-9.37,1.549-5.559,3.632-10.963,5.247-16.514.4-1.378.483-3.3,2.7-3.3,1.852.719,3.71,1.422,5.554,2.16,7.758,3.1,15.586,2.938,23.4.343a3.634,3.634,0,0,1,3.952.579c5.273,4.107,11.36,6.664,17.643,8.81a170.234,170.234,0,0,0,20.077,5.215,11.528,11.528,0,0,1,1.457.506c2.744,1,4.491,3.334,6.644,5.1,3.9,3.2,7.542,6.7,11.309,10.056C366.933,467.209,367.606,468.213,365.559,468.877Z" fill="#eff7f5"/>
    <path id="Path_20" data-name="Path 20" d="M311.764,388.753c2.519,4.968,4.853,10.022,8.064,14.626,6.738,9.661,16.244,14.365,27.652,15.625,10.452,1.154,20.757-.274,31.013-2.173a2.509,2.509,0,0,1,1.635-.069c.458.668-.024,1.331-.272,1.953a113.752,113.752,0,0,0-5.421,17.448c-.534,2.4-.6,2.356-2.871,2.026-9.151-1.332-18.318-2.56-27.452-4-6.537-1.03-13.028-2.352-19.546-3.506-3-.53-6.006-1.015-9.023-1.429-1.049-.145-1.625-.19-1.614-1.621s-1-1.71-2.148-.812a19.345,19.345,0,0,0-1.79,1.776,2.963,2.963,0,0,1-2.441,1.219,2.135,2.135,0,0,0-2.356,1.214c-.566,1.266-1.755,1.43-2.83,1.76-15.517,4.753-35.882-4.407-40.485-22.491-.8-3.161-1.751-6.293-1.346-9.618,3.278-.564,6.25.768,9.319,1.492,1.161.732.245,2.215,1.17,3.286,2.521-1.994,5.143-3.6,8.458-3.692,8.034-.224,13.735,3.6,17.9,10.134,1.051,1.646,1.754,3.53,3.555,5.11.965-2.53-.274-4.241-1.149-6.021-.622-1.265-2.007-2.247-1.465-3.945,2.94-.884,3.732,1.493,4.711,3.288,1.856,3.4,5.148,3.815,7.858.97,1.373-1.442.571-2.826.3-4.27,2.169-.591,2.484-.982,2.323-2.843-.448-5.191-1.309-10.323-2.233-15.445C311.449,388.38,311.608,388.4,311.764,388.753Z" fill="#bd9c6b"/>
    <path id="Path_21" data-name="Path 21" d="M525.965,645.249c.023,15.515-2.751,30.446-9.267,44.6-4.084,8.875-7.738,17.929-11.09,27.1-1.112,3.041-2.129,6.116-1.272,9.713a37.454,37.454,0,0,0-16.041.64c3.735-7.548,5.46-15.32,7.019-23.124,1.086-5.44,1.834-10.931,2.392-16.469a181.519,181.519,0,0,0,.424-23.926c-.128-4.071-.8-8.125-1.23-12.187-1-9.7,10.573-18.725,19.762-15.22C520.875,637.993,524.937,640.126,525.965,645.249Z" fill="#a65939"/>
    <path id="Path_22" data-name="Path 22" d="M454.558,560.59c-1.642,4.068.5,6.949,3.022,9.729.8.881,1.662.606,2.563.305,1.582-.511,2.238.834,3.1,1.631a30.7,30.7,0,0,0,7.139,5.162,3.21,3.21,0,0,0,3.285.161c.973,3.248.481,6.668,1.18,9.96.392,1.841.427,3.755.714,5.622.221,1.443-.183,2.059-1.756,2.2a308.032,308.032,0,0,1-32.159,1.331c-2.342-.041-2.435-.144-1.965-2.3a83.842,83.842,0,0,0,1.686-16.61c.081-5.369,0-10.74.074-16.109.137-9.708-1-19.315-2.155-28.925-.589-4.905-1.224-9.81-1.586-14.734-1.026-13.955-1.574-27.938-2.117-41.919a8.648,8.648,0,0,1,.219-3.3c2.018.692,3.956,1.439,5.942,2.018,2.829.826,5.63,1.518,8.644.451,2.334-.827,2.748-.921,2.9-3.329a83.553,83.553,0,0,1,.619-8.494c.323-1.968.546-3.953.813-5.92,1.127-.264,1.192.725,1.551,1.238,2.23,3.191,4.376,6.442,6.617,9.626,1.938,2.753,2.663,2.912,6,1.423.838,6.069,2.232,11.969,2.182,18.069-1.038.285-1.531-.53-2.086-1.1-9.5-9.788-22.021-3.688-25.981,5.774a28.778,28.778,0,0,0-2.062,9.517c-.733,12.5,1.836,24.5,5.436,36.332A203.742,203.742,0,0,0,454.558,560.59Z" fill="#5d9894"/>
    <path id="Path_23" data-name="Path 23" d="M454.558,560.59c-.87-.067-1.256-.689-1.54-1.389-5.085-12.526-9.446-25.24-11.823-38.634a97.909,97.909,0,0,1-1.043-19.715c.132-5.36,1.806-10.545,5.614-14.325,7.4-7.344,17.276-8.177,24.641.687a9.25,9.25,0,0,0,.659.655c.851,4.13.677,8.378,1.313,12.51.98,6.376-.628,12.289-2.367,18.251a2.465,2.465,0,0,1-1.249,1.664c-8.25,4.555-11.815,12.194-13.62,20.933a27.748,27.748,0,0,0,.84,15.236C456.719,558.5,455.238,559.3,454.558,560.59Z" fill="#83afa4"/>
    <path id="Path_24" data-name="Path 24" d="M428.1,669.9c-1.384-2.091-2.207-4.467-3.55-6.6-5.508-8.762-13.466-13-23.669-12.908-3.658.033-7.3.865-10.053,3.706.654-3.931.314-7.95,1.053-11.876a9.563,9.563,0,0,0,.145-1.883c-.082-6.3,1.045-12.564.682-18.879a6.907,6.907,0,0,1,.232-1.254c6.782,5.649,14.519,6.75,22.574,4.715a27.565,27.565,0,0,0,18.22-13.977c1.107.593.669,1.414.673,2.035.026,4,.228,8.017-.085,11.993-.763,9.694-.96,19.436-2.863,29.04-.976,4.923-2.018,9.844-2.809,14.807A3.987,3.987,0,0,1,428.1,669.9Z" fill="#824d36"/>
    <path id="Path_25" data-name="Path 25" d="M268.015,427.923a30.128,30.128,0,0,0-5.614,10.635,147.911,147.911,0,0,0-5.3,18.132c-.1.49-.05,1.056-.71,1.477a84.934,84.934,0,0,1-10.584-6.585c-3.679-2.621-7.236-5.414-10.847-8.13a2.721,2.721,0,0,1-1.382-2.889c1.962-11.2,5.511-21.785,12.139-31.158,2.642-3.737,2.677-3.671,6.513-1.272,1.865,1.166,4.227,1.833,5.606,3.4s1.781,3.965,2.654,5.982A31.642,31.642,0,0,0,268.015,427.923Z" fill="#eff7f5"/>
    <path id="Path_26" data-name="Path 26" d="M241.093,386.786c.936,1.743.016,3.26-.668,4.752-.609,1.33-1.477,2.539-2.121,3.856-.961,1.965-.747,2.614.961,3.937,1.656,1.281,3.282,2.6,4.921,3.9.839,1.357-.387,1.909-1.1,2.534a44.3,44.3,0,0,0-9.8,13.364c-1.623,3.151-2.147,3.414-5.408,2.028-12.313-5.236-21.56-13.913-28.122-25.49-.888-1.566-2.095-3.241-1.143-5.285a7.363,7.363,0,0,0,3.959-3.091c2.2,1.8,2.949,4.491,4.19,6.871.965,1.851,1.737,3.8,2.705,5.65.373.712,1.025,1.494,2,1.05.936-.427.839-1.338.625-2.193a2.179,2.179,0,0,0-.169-.6c-1.991-3.328-1.867-7.2-2.767-10.809a7.485,7.485,0,0,1,.263-5.495,5.459,5.459,0,0,0,4.6-2.677c2.771,1.742,3.673,4.687,4.776,7.487.5,1.263.834,2.588,1.315,3.858.277.733.869,1.3,1.689,1.059.8-.237.985-1.018.948-1.8a16.224,16.224,0,0,0-1.4-5.128,6.188,6.188,0,0,1,1.352-7.167c.934,2.4,2.86,2.636,5.043,2.313,1.482,1.721,1.648,3.98,2.426,5.989a7.937,7.937,0,0,0,1.33,2.788c1.412,1.508,2.911,1.411,4.045-.3.629-.948,1.1-2.016,2.2-2.551A4.1,4.1,0,0,0,241.093,386.786Z" fill="#d8a86d"/>
    <path id="Path_27" data-name="Path 27" d="M473.6,169.393c2.636-5.727,5.352-11.419,7.888-17.19,3.174-7.224,6-14.577,6.894-22.505a32.84,32.84,0,0,0,.293-4.078,1.76,1.76,0,0,1,1.786-2.052c6.42-.875,11.824.871,15.942,6.042.958,1.6,2.542,3.036,1.365,5.2a8.688,8.688,0,0,0-.5,3.958,7.439,7.439,0,0,0,.338,2.215,5.28,5.28,0,0,1,.143.925,20.692,20.692,0,0,1-1.157,5.544c-2.629,6.06-4.3,12.55-8.2,18.044-3.407,4.805-7.1,9.4-10.434,14.258-.966.9-1.609,2.069-2.529,3.012a9.227,9.227,0,0,1-4.576,1.878c-7.2,1.127-11.039-3.21-9.034-10.266A47.517,47.517,0,0,1,473.6,169.393Z" fill="#ed7548"/>
    <path id="Path_28" data-name="Path 28" d="M507.053,134.487a2.3,2.3,0,0,0,.229-2.6,4.665,4.665,0,0,1-.882-2.282c3.17,2.838,4.77,6.528,5.773,10.558,1.211,4.87.308,9.611-.894,14.31a77.374,77.374,0,0,1-4.88,13.634c-4.742,10.128-12.426,17.576-21.748,23.486a132.028,132.028,0,0,1-22.91,11.888c-3.6,1.4-6.721,3.871-10.552,4.865-3.735.969-7.386,2.279-11.494,2.76.517-1.422,1.709-1.789,2.563-2.4,8.139-5.832,14.679-13.189,20.394-21.317a116.245,116.245,0,0,0,9.876-16.486,2.818,2.818,0,0,1,1.069-1.514c.238,1.524-.424,2.913-.807,4.3a16.676,16.676,0,0,0-.465,5.3,4.827,4.827,0,0,0,4.755,4.9,13.569,13.569,0,0,0,8.46-1.887,29.5,29.5,0,0,1,3-2.531c8.993-6.938,15.57-15.542,18.552-26.672.561-2.093.474-3.938-1.2-5.492l1.206-5.76c2.448-.614,2.239-2.285,1.774-4.188C508.582,136.156,507.6,135.48,507.053,134.487Z" fill="#b86848"/>
    <path id="Path_29" data-name="Path 29" d="M616.468,323.746a2.114,2.114,0,0,1,1.49.664A84.2,84.2,0,0,0,636.2,334.93c.965.411,1.851,1.043,2.842,1.351,1.559.483,1.7,2.039,2.475,3.078.716.953-.5,1.651-.9,2.43q-4.608,8.971-9.746,17.651a3.875,3.875,0,0,1-4.472,2.179,45.954,45.954,0,0,1-19.872-7.467c-1.442-.942-1.638-1.812-.888-3.328,2.326-4.705,4.731-9.373,6.691-14.256C614.016,332.372,615.114,327.993,616.468,323.746Z" fill="#eff7f5"/>
    <path id="Path_30" data-name="Path 30" d="M425.323,344.878c-.786-2.221-1.493-4.413-2.344-6.547a2.459,2.459,0,0,1,.447-2.87c.845-.933,1.554-1.993,2.431-2.893a54.29,54.29,0,0,1,15.112-11.247,36.965,36.965,0,0,1,27.324-2.1c8.83,2.627,9.969,4.087,11.535,13.085.031.177-.112.383-.205.672A109.453,109.453,0,0,0,425.323,344.878Z" fill="#d8a86d"/>
    <path id="Path_31" data-name="Path 31" d="M631.5,292.621c.945,1.845.736,3.856.831,5.822a23.232,23.232,0,0,0,.115,2.495c.13.827.407,1.73,1.451,1.764a1.894,1.894,0,0,0,2.126-1.82c.349-2.579.718-5.156,1.083-7.733a6.973,6.973,0,0,1,.789-3c.508-.63,1.272-1.167.793-2.16,1.964-1.2,2.521-1.166,3.361.525a19.094,19.094,0,0,1,1.543,7.305c.159,2.285.044,4.59.049,6.886,0,.834-.039,1.672.014,2.5a1.661,1.661,0,0,0,1.434,1.779,1.867,1.867,0,0,0,2.244-1.251c.575-1.677,1.118-3.365,1.694-5.042.2-.583.459-1.145.691-1.716,1.253-.282,1.38-1.059.921-2.094.278-.691.769-1.529,1.479-1.226,1.072.456,1.017,1.621.876,2.661-1.33,7.855-4.794,14.988-8.061,22.1-2.282,4.965-7.607,4.934-12.2,4.333a51.838,51.838,0,0,1-14.262-3.719A5.6,5.6,0,0,0,616.52,317a15.045,15.045,0,0,1-4.9-7.909c-.271-1.212-.666-2.458.189-3.624,2.347,2.1,2.319-.184,2.8-1.522,1.2-.013,1.9.855,2.565,1.627a9.426,9.426,0,0,0,3.573,2.465c1.773.768,2.337.549,2.562-1.467.28-2.5.347-5.028.674-7.522.351-2.679.492-5.46,2.4-7.668C627.693,293.413,629.672,292.712,631.5,292.621Z" fill="#d8a86d"/>
    <path id="Path_32" data-name="Path 32" d="M525.965,645.249c-3.239-5.492-7.819-8.838-14.4-8.83-4.989.006-8.438,2.953-11.15,6.631-1.822,2.471-3.436,5.258-3.512,8.555-1.039-1.449-.715-3.231-1.083-4.835-1.98-8.642-5.951-16.284-10.948-23.517a117.133,117.133,0,0,0-14.634-17.641c-1.11-1.079-2.288-2.086-3.388-3.084.425-1.127,1.272-.813,1.942-.828,2-.043,4.008.123,5.989-.062,1.868-.174,2.647.644,3.089,2.3a47.2,47.2,0,0,0,3.559,9.07,25.439,25.439,0,0,0,13.443,12.208c6.246,2.627,16.4-1.2,19.169-5.874.842-1.422,1.774-2.79,2.651-4.162,1.184.487,1.378,1.5,1.743,2.325a103.063,103.063,0,0,1,7.548,25.856A11.123,11.123,0,0,1,525.965,645.249Z" fill="#824d36"/>
    <path id="Path_33" data-name="Path 33" d="M270.233,402.667a38.392,38.392,0,0,1-9.7-1.984c-1.056-12.909,10.376-21.95,21.444-20.822,5.157.525,9.557,3.088,13.628,6.164a41.952,41.952,0,0,1,13.174,17.4c.577,1.342,1.061,2.772,2.414,3.606.354.789,1.886.426,1.735,1.539a5.079,5.079,0,0,1-1.647,3.617c-1.711,1.328-3.783,1.746-5.808,2.258a1.54,1.54,0,0,1-1.786-.977c-.48-.931-.891-1.9-1.331-2.849-.811-1.752-1.808-3.3-3.956-3.568-1.35.166-2.058-.877-2.913-1.593a29.871,29.871,0,0,0-7.688-4.8,15.917,15.917,0,0,0-15.3,1.11C271.8,402.2,271.163,402.809,270.233,402.667Z" fill="#d8a86d"/>
    <path id="Path_34" data-name="Path 34" d="M526.566,426.425c-3.06,8.151-6.137,16.3-9.153,24.461-.26.705-.89,1.518-.145,2.341-3.09.854-6.251.481-9.368.391a115.488,115.488,0,0,1-12.852-1.141c-1.754-.248-2.847-.836-3.23-2.755-.43-2.15-1.221-4.228-1.857-6.336-.659-2.186-.674-2.232,1.3-2.865,8-2.558,15.789-5.665,23.6-8.72C518.882,430.233,522.638,428.152,526.566,426.425Z" fill="#c7dce2"/>
    <path id="Path_35" data-name="Path 35" d="M431.192,479c.4,5.337,1.011,10.669,1.168,16.014.4,13.66,1.588,27.247,3.316,40.8.053.416.062.838.091,1.257-.032.7.908,1.712-.629,1.911-6.495-12.843-9.916-26.649-12.748-40.643-1.413-6.979-2.959-13.935-3.258-21.086-.64-6-.031-6.624,5.9-6.006.209.022.417.051.625.078,5.152.662,5.151.662,5.253,5.844A3.288,3.288,0,0,0,431.192,479Z" fill="#eff7f5"/>
    <path id="Path_36" data-name="Path 36" d="M198.687,390.533c1.25,5.627,4.657,10.062,8.288,14.25a66.264,66.264,0,0,0,15.332,12.935,52.5,52.5,0,0,0,7.448,3.314c1.2.507,1.722.06,2.194-.938a61.79,61.79,0,0,1,3.993-7.132,34.255,34.255,0,0,1,7.473-8.434,1.883,1.883,0,0,0,.77-1.293c1.077.4,1.641.952.716,2.063-8.251,9.9-10.855,22.079-13.878,34.258-.6.362-.988-.281-1.425-.672a180.139,180.139,0,0,1-18.671-19.639,156.536,156.536,0,0,1-10.7-13.64c-3.367-5.139-5.317-10.735-3.554-17.015a4.85,4.85,0,0,1,.609-1.052A2.889,2.889,0,0,1,198.687,390.533Z" fill="#bd9c6b"/>
    <path id="Path_37" data-name="Path 37" d="M473.664,577.578c-.156,1.045-.074,2.234-1.82,1.413a30.933,30.933,0,0,1-8.628-5.7c-.971-.946-1.76-2.114-3.072-2.672l.3-.577c.894-.708,2.068.074,2.976-.557,3.362-1.9,4.545-6.08,3.405-9.944-1.085-3.676-2.921-4.854-7.09-4.2A29.811,29.811,0,0,1,459.1,543.6a29.156,29.156,0,0,1,5.967-14.052,24.8,24.8,0,0,1,3.3-3.367c.92-.816,2.019-2.024,3.234-1.524s.58,2.073.614,3.154Q472.986,552.694,473.664,577.578Z" fill="#83afa4"/>
    <path id="Path_38" data-name="Path 38" d="M489.844,195.8a83.089,83.089,0,0,0,18.041-17.43,60.261,60.261,0,0,0,11.884-25.427c.106-.513.267-1.015.369-1.529.188-.939.756-1.17,1.614-.921a8.443,8.443,0,0,1,4.736,3.428c3.227,4.642,3.683,9.744,2.559,15.075a28.02,28.02,0,0,1-3.052,8.563c-.811.341-1.253-.423-1.888-.617-1.866-.69-2.707.679-3.531,1.856a101.13,101.13,0,0,1-7.718,9.861,8.033,8.033,0,0,1-2.845,2.39c-5.038,1.99-9.89,4.477-15.147,5.852C493.15,197.347,491.011,198.422,489.844,195.8Z" fill="#ed7548"/>
    <path id="Path_39" data-name="Path 39" d="M400.815,556.153c-4.527-6.547-.113-17.94,7.669-20.722.244.009.6.454.677-.182a2.768,2.768,0,0,1,2.449-.5c4.385.772,8.268,2.322,10.5,6.565,2.758,5.246,4.273,10.825,3.381,16.7-1.112,7.336-9.523,10.565-16.3,6.515C405.688,562.443,403.335,559.215,400.815,556.153Z" fill="#c7dce2"/>
    <path id="Path_40" data-name="Path 40" d="M534.2,252.208C531.08,248,528,243.76,524.826,239.6c-7.458-9.765-14.934-19.516-23.145-28.674-.751-.837-1.391-1.773-2.232-2.856l6.289-3.336c2.469.827,5.425.51,7.166,3.046a1.554,1.554,0,0,1-.4.466c-.986.806-3.316.015-3.135,1.847.128,1.294,2.133.92,3.3,1.228,5.6,1.479,10.035,4.76,13.832,8.956,1.17,1.293,2.053,1.333,3.207.218a1.84,1.84,0,0,1,.748,1.953c-1.666,7.821,1.313,15.078,2.664,22.536C533.546,247.376,535.328,249.577,534.2,252.208Z" fill="#b86848"/>
    <path id="Path_41" data-name="Path 41" d="M479.307,321.071c3.67,4.407,5.275,9.808,6.717,15.138,1.97,7.286,3.6,14.68,6,21.832,1.7,5.041,3.479,10.152,7.537,13.994a9.647,9.647,0,0,0,6.793,2.772c7.43.152,14.581-1.445,21.7-3.234,8.362-2.1,16.649-4.488,24.247-8.708,3.577-1.987,7.057-4.154,10.534-6.316,2.229-1.386,4.537-2.631,6.758-4.038a15.049,15.049,0,0,0,6.912-11.133,56.216,56.216,0,0,0,.785-10.029,42.747,42.747,0,0,1,.611-5.933c.888,3.946.482,7.931.271,11.9a38.8,38.8,0,0,1-.885,5.912,19.723,19.723,0,0,1-8.267,12.6,98.542,98.542,0,0,1-12.087,6.8c-11.84,5.957-23.758,11.732-36.722,14.948a76.022,76.022,0,0,1-9.307,1.621,22.353,22.353,0,0,1-8.125-.725,12.1,12.1,0,0,1-8.27-6.728,75.472,75.472,0,0,1-4.415-12.467c-3.6-12.3-6.751-24.735-10.624-36.96A6.887,6.887,0,0,1,479.307,321.071Z" fill="#d5c59f"/>
    <path id="Path_42" data-name="Path 42" d="M311.126,372.263c1.454,3.343,2.9,6.692,4.366,10.029,3.258,7.4,6.739,14.681,11.616,21.205,3.355,4.488,8.208,6.4,13.309,7.827a34.9,34.9,0,0,0,10.865,1.4c3.359-.136,6.73.041,10.093-.048a106.734,106.734,0,0,0,27.8-4.419A81.66,81.66,0,0,0,413.3,397a21.7,21.7,0,0,0,8.6-12,85.622,85.622,0,0,0,3.082-21.681c.915,3.949.529,7.96.358,11.925a62.762,62.762,0,0,1-1.584,11.235,19.5,19.5,0,0,1-8.693,12.68c-4.085,2.6-8.167,5.231-12.437,7.5s-9.062,3.49-13.727,4.607c-12.09,2.893-24.331,5-36.859,4.658a44.587,44.587,0,0,1-14.5-2.814,29.194,29.194,0,0,1-12.917-9.3A66.479,66.479,0,0,1,311.126,372.263Z" fill="#d5c59f"/>
    <path id="Path_43" data-name="Path 43" d="M484.4,466.977c1.623,4.243,2.2,8.721,2.832,13.17a89.523,89.523,0,0,1,.822,21.668,111.745,111.745,0,0,1-4.232,19.58c-1.825-.925-3.274-1.988-5-2.366-1.077-.235-1.239-1.069-1.269-1.91-.123-3.449-.545-6.877.348-10.332a99.379,99.379,0,0,0,2.981-19.261,96.913,96.913,0,0,0-.617-13.2c-.142-1.775-.3-3.548-.457-5.322C480.3,466.567,481.245,466.148,484.4,466.977Z" fill="#eff7f5"/>
    <path id="Path_44" data-name="Path 44" d="M365.559,468.877c1.059-.773.8-1.371-.1-2.15-5.938-5.117-11.924-10.184-17.561-15.639,5.693.935,11.379,1.91,17.079,2.795,8.409,1.306,16.875,2.088,25.36,2.7,1.011.072,2.492-.576,2.942.935.582,1.956-1.071,2.445-2.376,3.088a106.422,106.422,0,0,1-22.281,7.666C367.612,468.51,366.658,469.08,365.559,468.877Z" fill="#c7dce2"/>
    <path id="Path_45" data-name="Path 45" d="M369.593,772.249c1.243-5.307,3.574-10.3,4.45-15.716.251-1.552.584-3.093.944-4.623.42-1.783.79-2.029,2.65-1.688a12.3,12.3,0,0,1,5.561,2.809c2.237,1.826,3.649,4.315,5.4,6.534a1.56,1.56,0,0,1,.247,1.744c-2.76,6.123-5.255,12.406-10.275,17.178a11.338,11.338,0,0,1-2.79,2.033c-2.816,1.378-4.864.718-6.222-2.1-.677-1.4-1.422-2.861-.5-4.471.6-.167,1.086,1.117,1.5.376C371.019,773.515,369.957,772.942,369.593,772.249Z" fill="#f49d4d"/>
    <path id="Path_46" data-name="Path 46" d="M553.663,386.8A141.9,141.9,0,0,0,543.649,372.4c9.162-4.429,18.25-8.63,26.931-13.916.645,1.612-.059,2.9-.423,4.108a120.091,120.091,0,0,1-5.089,13.893,9.386,9.386,0,0,1-3.081,3.9C559.215,382.425,556.527,384.58,553.663,386.8Z" fill="#bd9c6b"/>
    <path id="Path_47" data-name="Path 47" d="M512.721,207.959c-1.361-1.191-3.135-1.37-4.763-1.86-.906-.274-1.8-.385-2.219-1.368,1.967-1.756,4.1-2.028,6.685-1.337,11.411,3.047,19.82,9.354,23.4,21.033a40.443,40.443,0,0,1,1.483,10.869c.177,6.92-.349,13.845.17,20.762.042.516-.13.73-.647.459l-2.627-4.309c-1.444-5.44-3.192-10.8-4.042-16.392-.486-3.192-1.071-6.369-1.536-9.565a2.659,2.659,0,0,1,.64-2.6,2.087,2.087,0,0,0-.015-3.076c-2.161-1.014-2.469-3.538-4.106-5.009a31.745,31.745,0,0,0-9.864-6.013C514.327,209.181,513.181,209.121,512.721,207.959Z" fill="#ed7548"/>
    <path id="Path_48" data-name="Path 48" d="M502.964,746.989c-3.261-.166-6.772-2.027-9.979-4.459a27.368,27.368,0,0,1-7.422-8.468c-1.087-1.941-1.007-2.332.973-3a34.273,34.273,0,0,1,18.606-1.2c.631.138,1.256.235,1.573.873,1.4,2.8,3.3,5.373,3.785,8.587C511.229,744.131,508.744,747.039,502.964,746.989Z" fill="#f49d4d"/>
    <path id="Path_49" data-name="Path 49" d="M321.361,434.111c6.373.7,12.585,2.3,18.885,3.412,8.064,1.424,16.17,2.515,24.279,3.608q3.429.463,6.854.958c1.1.156,1.656.57,1.354,1.888a36.045,36.045,0,0,0-.478,4.44,165.456,165.456,0,0,1-20.007-3.067c-5.655-1.145-11.27-2.485-16.9-3.733a70.939,70.939,0,0,1-17.836-6.971,4.353,4.353,0,0,1-.7-.437l-.007.007c-.111-.629.076-.955.774-.764l1.166.151C319.539,434.168,320.559,433.579,321.361,434.111Z" fill="#bd9c6b"/>
    <path id="Path_50" data-name="Path 50" d="M618.474,321.031a66.4,66.4,0,0,1,9.5,1.885c3.547.978,7.008,1.576,10.789.777,3.268-.691,5.275-2.231,6.419-5.241,1.971-5.183,4-10.345,6.007-15.515.6-1.54,1.206-3.077,1.809-4.616a73.978,73.978,0,0,1-6.119,29.984,41.8,41.8,0,0,1-3.495,7.248c-2.563-2.4-5.715-3.537-8.694-4.982A92.516,92.516,0,0,1,618.474,321.031Z" fill="#bd9c6b"/>
    <path id="Path_51" data-name="Path 51" d="M489.844,195.8c1.6,1.338,3.3.755,4.991.276,4.8-1.357,9.248-3.645,13.9-5.384.48-.18.979-.307,1.469-.459-.142,2.755-2.819,3.607-4.1,5.484a1.3,1.3,0,0,0-.248.477.354.354,0,0,0,.356.265,5.162,5.162,0,0,0,.834-.227,1.972,1.972,0,0,1,.679-.052c.464.18.928.358.623,1.006h0a5.2,5.2,0,0,1-.672.539c-6.569,4.515-13.546,8.061-21.548,9.266a74.2,74.2,0,0,1-10.084.4,57.018,57.018,0,0,1-7.676-.308C475.418,203.043,483.031,200.171,489.844,195.8Z" fill="#b86848"/>
    <path id="Path_52" data-name="Path 52" d="M412.909,472.06c-1.352-.761-2.837-.53-4.289-.6-3.631-.171-7.312.472-10.889-.637-.181-4.308.774-8.515,1.131-12.775.084-1,.823-1.059,1.6-1.048q3.924.054,7.849.1c1.046.011,2.092.025,3.138,0,2.676-.063,2.739-.067,2.549,2.465C413.68,463.735,413.275,467.9,412.909,472.06Z" fill="#c7dce2"/>
    <path id="Path_53" data-name="Path 53" d="M431.192,479c-1.1-1.27-.5-2.8-.559-4.2s-.441-2.1-1.97-2.114c-2.378-.026-4.69-.819-7.111-.607-2.172.191-2.194.133-2.282,2.369-.036.933-.091,1.865-.138,2.8-.969-4.269-.328-8.568-.2-12.852.06-1.992.356-3.977.567-5.963.1-.891.39-1.571,1.48-1.693,3.32-.372,6.633-.815,10.339-1.279C430.953,463.5,431.2,471.245,431.192,479Z" fill="#c7dce2"/>
    <path id="Path_54" data-name="Path 54" d="M275.81,433.475c-1.139.48-1.28,1.591-1.593,2.574-1.178,3.694-2.23,7.431-3.525,11.083-1.821,5.138-2.952,10.5-5.087,15.53-5.441-1.809-5.514-1.828-4.145-7.079a145.322,145.322,0,0,1,8.835-25.6Z" fill="#c7dce2"/>
    <path id="Path_55" data-name="Path 55" d="M623.44,370.418c-.792-.99-1.912-.662-2.926-.7-4.28-.182-8.488-.977-12.72-1.544-3.155-.423-5.893-2.04-8.6-3.636l4.449-8.826c7.06,4.976,14.474,8.475,23.2,9.116A17.1,17.1,0,0,1,623.44,370.418Z" fill="#c7dce2"/>
    <path id="Path_56" data-name="Path 56" d="M305.42,375.952a38.131,38.131,0,0,0-16.447-2.389c1.512-2.472,2.82-4.454,3.967-6.526,1.322-2.387,2.526-4.84,3.728-7.29.443-.9.911-1.346,1.937-.786a9.014,9.014,0,0,0,1.776.61c.981.292,2.376-.293,2.919.669.465.822.186,2.042.327,3.073C304.178,367.343,304.766,371.367,305.42,375.952Z" fill="#ed7448"/>
    <path id="Path_57" data-name="Path 57" d="M462.164,306.588c-.643,2.972-1.444,3.776-4.434,3.686a49.848,49.848,0,0,0-17.683,2.45,30.747,30.747,0,0,0-9.536,4.753c-1.922,1.526-2.884,1.081-3.788-1.394,9.495-7.562,20.244-11.149,32.418-10.234A6.779,6.779,0,0,1,462.164,306.588Z" fill="#fffdff"/>
    <path id="Path_58" data-name="Path 58" d="M400.815,556.153c.214-.286.193-1.385.835-.335a24.3,24.3,0,0,0,7.91,7.946c3.5,2.2,7.18,2.642,10.943.311a8.928,8.928,0,0,0,4.4-8.75c-.308-5.038-1.14-9.934-3.964-14.333A11.2,11.2,0,0,0,414,536.005c-.932-.239-1.868-.3-2.387-1.256,4.509-.583,8.055,1.213,10.744,4.666a24.094,24.094,0,0,1,5.033,18.357c-1.061,8.632-11.747,12.9-18.4,8.034-2.731-2-5.3-4.131-6.866-7.231a.471.471,0,0,1-.32-.452l-.359-.715q-.182-.269-.351-.545C401,556.626,400.908,556.389,400.815,556.153Z" fill="#f8f8f9"/>
    <path id="Path_59" data-name="Path 59" d="M491.177,465.135a3.742,3.742,0,0,0-3.2,1.4c-1.546-4.1-2.688-8.341-4.452-12.367-1.427-3.258-3.314-6.273-4.9-9.412.24-.223.363-.412.535-.485,5.851-2.491,5.9-2.5,7.691,3.536A147.749,147.749,0,0,1,491.177,465.135Z" fill="#c7dbe2"/>
    <path id="Path_60" data-name="Path 60" d="M435.671,461.975c-.021-1.981-.037-3.962-.065-5.944a1.48,1.48,0,0,1,1.411-1.687c4.1-.76,8.185-1.6,12.28-2.394.934-.18,1.321.193,1.2,1.209-.513,4.443-.974,8.893-1.454,13.34-2.037-3.933-6.275-4.4-9.709-6.1C437.693,459.588,437.366,462.513,435.671,461.975Z" fill="#5d9894"/>
    <path id="Path_61" data-name="Path 61" d="M435.671,461.975a4.477,4.477,0,0,0,.953-.78c1.621-2.333,1.6-2.316,4.226-1.065a58.029,58.029,0,0,0,5.43,2.394,3.681,3.681,0,0,1,2.767,3.975c.1,4.873.626,4.8-4.367,3.875a24.982,24.982,0,0,1-7.146-2.1c-2.413-1.255-2.484-1.384-2.2-4.141C435.41,463.408,435.557,462.693,435.671,461.975Z" fill="#83afa4"/>
    <path id="Path_62" data-name="Path 62" d="M381.313,310.918a6.132,6.132,0,0,1,3.336.708,2.215,2.215,0,0,1-.169,4.016,5.492,5.492,0,0,1-2.079.677c-4.45.24-8.527,2.005-12.782,3.032a2.9,2.9,0,0,0-.3.1,3.38,3.38,0,0,1-3.99-1.013c-1.152-1.4.063-2.507.787-3.62a85.4,85.4,0,0,1,13.141-3.951A2.054,2.054,0,0,1,381.313,310.918Z" fill="#fffffd"/>
    <path id="Path_63" data-name="Path 63" d="M484.4,466.977c-1.6.511-3.693-.08-4.59,2.027a116.2,116.2,0,0,0-4.4-17.61c-.492-1.38-.986-2.759-1.519-4.122-.213-.544-.278-1.006.277-1.347a1.051,1.051,0,0,1,1.615.328c.714,1.156,1.44,2.31,2.085,3.506A58.644,58.644,0,0,1,484.4,466.977Z" fill="#c5dae0"/>
    <path id="Path_64" data-name="Path 64" d="M292.013,378.355A28.81,28.81,0,0,1,304.874,381a2.438,2.438,0,0,1,1.657,1.75,83.022,83.022,0,0,1,1.506,9.923C303.2,386.793,298.33,381.83,292.013,378.355Z" fill="#eb7348"/>
    <path id="Path_65" data-name="Path 65" d="M495.656,287.485a9.373,9.373,0,0,1,1.83.378c1.691.709,1.8,1.712.4,3.017a18.5,18.5,0,0,1-7.973,4.158c-2.945.788-4-.035-4.39-2.965A40.479,40.479,0,0,1,495.656,287.485Z" fill="#fffdfc"/>
    <path id="Path_66" data-name="Path 66" d="M473.442,471.639c-1.2-4.976-2.364-9.962-3.616-14.925-.614-2.433-1.345-4.84-2.12-7.227-.309-.951-.362-1.6.753-1.93a1.161,1.161,0,0,1,1.653.895c2.106,6.907,4.308,13.79,4.813,21.062C474.584,470.33,474.357,471.225,473.442,471.639Z" fill="#c3d6dd"/>
    <path id="Path_67" data-name="Path 67" d="M568.347,273.735a8.646,8.646,0,0,0,.775.972c1.09,1.037,1.625,2.288.909,3.661-.63,1.209-1.928,1.491-3.223,1.591a7.224,7.224,0,0,1-3.917-.941c-2.044-1.068-2.32-2.317-1.43-5.351A20.463,20.463,0,0,1,568.347,273.735Z" fill="#fffdfc"/>
    <path id="Path_68" data-name="Path 68" d="M462.079,457.734c-1.636-1.658-2.568-3.783-3.794-5.712-.724-1.14-.679-1.749.825-2.205,4.825-1.464,4.815-1.526,5.96,3.355.189.807.272,1.64.4,2.461a.9.9,0,0,1-.849.014c-.4-.156-1.058-1.863-1.156.218A2.21,2.21,0,0,1,462.079,457.734Z" fill="#5e9792"/>
    <path id="Path_69" data-name="Path 69" d="M462.079,457.734a10.176,10.176,0,0,1,1.526-3.441c1.151-.267,1.011,1.237,1.869,1.34a28.512,28.512,0,0,1,2,9.264A31.7,31.7,0,0,1,462.079,457.734Z" fill="#80a89e"/>
    <path id="Path_70" data-name="Path 70" d="M477.988,524.063a4.089,4.089,0,0,1,2.671.929,2.214,2.214,0,0,1,1.068,3.14c-1,2.232-1.413,4.714-3.207,6.759C478.345,531.321,478.169,527.751,477.988,524.063Z" fill="#eee7eb"/>
    <path id="Path_71" data-name="Path 71" d="M473.442,471.639c.148-.95.105-2.033,1.483-2.125a70.629,70.629,0,0,1,1.169,18.349c-.188.324-.37.3-.544-.013Z" fill="#dedee0"/>
    <path id="Path_72" data-name="Path 72" d="M198.687,390.533a4.753,4.753,0,0,1-1.4-3c2.2-2.883,2.847-2.913,5.294-.24C202.414,390.679,202.237,390.826,198.687,390.533Z" fill="#fcfbfa"/>
    <path id="Path_73" data-name="Path 73" d="M508.35,197.183a1.41,1.41,0,0,0-1.3-.67,1.1,1.1,0,0,1,.647-1.283,35.367,35.367,0,0,0,12.291-11.358,1.983,1.983,0,0,1,1.3-.8c.538.038.745.453.97.849C518.42,189.176,514.1,193.928,508.35,197.183Z" fill="#994a42"/>
    <path id="Path_74" data-name="Path 74" d="M631.5,292.621a8.765,8.765,0,0,1-1.005.717c-2.381,1.254-3.312.8-4.118-1.963A4.564,4.564,0,0,1,627,290.31c1.925-1.879,3.055-1.664,4.2.81A6.651,6.651,0,0,1,631.5,292.621Z" fill="#fcf9f8"/>
    <path id="Path_75" data-name="Path 75" d="M227.749,379.711c-3.316,1.993-4.664,1.375-5.043-2.313,2.4-1.689,2.7-1.609,4.772,1.244a.33.33,0,0,0,.176.482A1.293,1.293,0,0,1,227.749,379.711Z" fill="#f9f4f1"/>
    <path id="Path_76" data-name="Path 76" d="M214.024,379.091c-.288,3.486-1,3.9-4.6,2.677C210.3,378.264,211.313,377.672,214.024,379.091Z" fill="#fbf7f6"/>
    <path id="Path_77" data-name="Path 77" d="M614.608,303.941a3.825,3.825,0,0,1,.405.832c.379,1.71-.082,2.778-1.3,2.893-1.6.15-1.806-1.007-1.9-2.206C612.274,304.1,613.134,303.454,614.608,303.941Z" fill="#f1e6df"/>
    <path id="Path_78" data-name="Path 78" d="M522.261,183.92l-.753-.71c.153-2.726,2.055-4.631,3.228-6.878l1.259,1.225A21.344,21.344,0,0,1,522.261,183.92Z" fill="#d15f42"/>
    <path id="Path_79" data-name="Path 79" d="M369.593,772.249c.5.052,1.041-.015,1.451.378a1.981,1.981,0,0,1,.564,2.492,1.306,1.306,0,0,1-1.5.807c-1.079-.249-.927-1.2-1.049-1.983C369.236,773.381,369.415,772.815,369.593,772.249Z" fill="#f9e9dd"/>
    <path id="Path_80" data-name="Path 80" d="M241.093,386.786c-2.251,1.42-2.613,1.3-3.345-1.149C239.688,384.652,240.022,384.767,241.093,386.786Z" fill="#e6dad9"/>
    <path id="Path_81" data-name="Path 81" d="M395.906,309.625l-11.514-.021A21.869,21.869,0,0,1,395.906,309.625Z" fill="#fcdfae"/>
    <path id="Path_82" data-name="Path 82" d="M558.36,388.714c-.691.987-1.046,2.245-2.335,2.889-.807-1.051-1.635-2,.336-2.717a7.371,7.371,0,0,0,1.3-.8C558.3,387.842,558.457,388.137,558.36,388.714Z" fill="#ac8664"/>
    <path id="Path_83" data-name="Path 83" d="M650.642,296.886c.958.294,1.462.855.888,1.838a1.055,1.055,0,0,1-1.809.254A3.211,3.211,0,0,1,650.642,296.886Z" fill="#f0e1d5"/>
    <path id="Path_84" data-name="Path 84" d="M417.286,489.8c-.8-.37-.47-1.437-1.158-1.875a5.609,5.609,0,0,1-.014-2.519c.182-.335.363-.318.545,0C416.92,486.862,417.537,488.268,417.286,489.8Z" fill="#d4cdd2"/>
    <path id="Path_85" data-name="Path 85" d="M317.576,433.452q-.387.381-.773.764a2.628,2.628,0,0,1-2.094-1.145A2.883,2.883,0,0,1,317.576,433.452Z" fill="#a57c5f"/>
    <path id="Path_86" data-name="Path 86" d="M638.691,287.991c1.332,1.142,1.221,1.442-.793,2.159A2.631,2.631,0,0,1,638.691,287.991Z" fill="#dfc8ba"/>
    <path id="Path_87" data-name="Path 87" d="M435.138,538.974c.677-.482.3-1.312.629-1.91.881,1.087.491,2.325.6,3.6C435.3,540.4,435.211,539.691,435.138,538.974Z" fill="#bca0ac"/>
    <path id="Path_88" data-name="Path 88" d="M311.023,388.119c-.766-.8-.449-1.739-.512-3.045a4.87,4.87,0,0,1,1.221,2.407C311.5,387.7,311.454,388.123,311.023,388.119Z" fill="#854e67"/>
    <path id="Path_89" data-name="Path 89" d="M558.36,388.714l-.7-.625a2.772,2.772,0,0,1,.6-.642c.309-.166.694-.608,1.024-.113.1.148-.1.563-.257.79A3.541,3.541,0,0,1,558.36,388.714Z" fill="#804a4e"/>
    <path id="Path_90" data-name="Path 90" d="M384.442,309.567c-.834,1.226-2.086.573-3.163.705A5.022,5.022,0,0,1,384.442,309.567Z" fill="#fcdfae"/>
    <path id="Path_91" data-name="Path 91" d="M463.416,569.49c-.847.963-1.967.466-2.976.557C461.294,569.12,462.424,569.675,463.416,569.49Z" fill="#5d9894"/>
    <path id="Path_92" data-name="Path 92" d="M321.361,434.111c-.919.07-1.872.314-2.619-.508A3.127,3.127,0,0,1,321.361,434.111Z" fill="#a57c5f"/>
    <path id="Path_93" data-name="Path 93" d="M398.457,310.233c-.913-.006-1.925.4-2.589-.631A3.27,3.27,0,0,1,398.457,310.233Z" fill="#fcdfae"/>
    <path id="Path_94" data-name="Path 94" d="M536.829,256.517c.216-.154.431-.308.647-.46.493.339.753.928.261,1.236C537.2,257.628,536.889,257.079,536.829,256.517Z" fill="#905367"/>
    <path id="Path_95" data-name="Path 95" d="M409.161,535.249l.712.45c-.549.355-.983.12-1.388-.268Z" fill="#f8f8f9"/>
    <path id="Path_96" data-name="Path 96" d="M416.659,485.4l-.273-.015-.272.014a2.053,2.053,0,0,1-.1-.607c.042-.3.154-.825.255-.829.572-.027.406.5.466.825A2.024,2.024,0,0,1,416.659,485.4Z" fill="#b695a4"/>
    <path id="Path_97" data-name="Path 97" d="M400.4,310.815c-.758.1-1.538.279-1.99-.613A2.2,2.2,0,0,1,400.4,310.815Z" fill="#fcdfae"/>
    <path id="Path_98" data-name="Path 98" d="M381.313,310.918l-2.054-.049a2.242,2.242,0,0,1,2.028-.6Q381.3,310.593,381.313,310.918Z" fill="#fcdfae"/>
    <path id="Path_99" data-name="Path 99" d="M402.22,311.522c-.734.011-1.539.2-1.889-.755A2.252,2.252,0,0,1,402.22,311.522Z" fill="#fcdfae"/>
    <path id="Path_100" data-name="Path 100" d="M475.55,487.85a4.93,4.93,0,0,1,.544.013,3.023,3.023,0,0,1-.027,1.883c-.181.337-.348.314-.5-.018Q475.556,488.789,475.55,487.85Z" fill="#c5acb7"/>
    <path id="Path_101" data-name="Path 101" d="M475.562,489.728a5,5,0,0,1,.5.018.761.761,0,1,1-.5-.018Z" fill="#9a6c80"/>
    <path id="Path_102" data-name="Path 102" d="M402.167,312.172l.036-.661a1.29,1.29,0,0,1,1.266.669l-.767.094A.377.377,0,0,1,402.167,312.172Z" fill="#fcdfae"/>
    <path id="Path_103" data-name="Path 103" d="M311.023,388.119l.709-.638q.017.636.032,1.271l-.24-.031-.24.026Z" fill="#b999a4"/>
    <path id="Path_104" data-name="Path 104" d="M427.5,673.088a1.246,1.246,0,0,1,.479-1.284A1.207,1.207,0,0,1,427.5,673.088Z" fill="#824d36"/>
    <path id="Path_105" data-name="Path 105" d="M259.94,234.482a1.161,1.161,0,0,1-.517,1.244A1.109,1.109,0,0,1,259.94,234.482Z" fill="#b86848"/>
    <path id="Path_106" data-name="Path 106" d="M401.093,556.863a.419.419,0,0,1,.352.546C401.13,557.353,400.994,557.184,401.093,556.863Z" fill="#c7dce2"/>
    <path id="Path_107" data-name="Path 107" d="M401.8,558.123a.352.352,0,0,1,.32.453C401.843,558.547,401.72,558.408,401.8,558.123Z" fill="#c7dce2"/>
    <path id="Path_108" data-name="Path 108" d="M316.809,434.209l.7.437A.647.647,0,0,1,316.809,434.209Z" fill="#a57c5f"/>
    <path id="Path_109" data-name="Path 109" d="M227.654,379.124a2.375,2.375,0,0,1-.278-.3c-.019-.027.063-.122.1-.184a2.161,2.161,0,0,1,.27.291C227.767,378.962,227.688,379.058,227.654,379.124Z" fill="#d8a86d"/>
    <path id="Path_110" data-name="Path 110" d="M507.676,197.721l.672-.539A.754.754,0,0,1,507.676,197.721Z" fill="#994a42"/>
    <path id="Path_111" data-name="Path 111" d="M265.609,462.664a.551.551,0,0,1,.646.408A.472.472,0,0,1,265.609,462.664Z" fill="#c7dce2"/>
    <path id="Path_112" data-name="Path 112" d="M374.991,274.8c1.516.859,3.453,1.388,3.283,3.694-.181,2.461-2.116,3.155-4.043,3.783a109.228,109.228,0,0,0-10.84,4.131,9.106,9.106,0,0,0-2.99,1.665c-4.2,1.534-7.555,4.44-11.223,6.839-.525.343-.967.826-1.515,1.118a2.634,2.634,0,0,1-3.453-.387c-.926-1.022-1.671-2.169-.9-3.678a12.218,12.218,0,0,1,2.246-3.009,47.351,47.351,0,0,1,18.5-11.543C367.607,276.178,371.133,274.774,374.991,274.8Z" fill="#4d0b2a"/>
    <path id="Path_113" data-name="Path 113" d="M353.605,136.449a43.072,43.072,0,0,1,4.891-18.715c2.877-5.443,7.54-7.977,13.578-8.2,5.975-.22,9.546,4.643,7.534,10.337a45.206,45.206,0,0,1-4.648,8.926,104.533,104.533,0,0,1-6.612,9.594,16.4,16.4,0,0,1-6.617,5.193c-4.68,1.913-7.887-.14-8.122-5.244C353.58,137.711,353.605,137.08,353.605,136.449Z" fill="#fff"/>
    <path id="Path_114" data-name="Path 114" d="M394.039,137.132c-.026,4.206.135,8.422-.113,12.614-.746,12.572-3.106,24.791-8.6,36.243a60.322,60.322,0,0,1-4.684,7.721c-1.354-.437-.78-1.233-.648-1.878,1.159-5.676,3.148-11.115,4.773-16.658.677-2.311,1.6-4.565,1.669-7.022,2.024-5.814,2.524-11.9,3.115-17.956.468-4.806.718-9.634,1.068-14.452.022-.314.054-.629.1-.94.119-.763.385-1.5,1.224-1.65,1.114-.205,1.433.724,1.673,1.5A18.27,18.27,0,0,1,394.039,137.132Z" fill="#4e0b2a"/>
    <path id="Path_115" data-name="Path 115" d="M267.528,243.97c-.455.339-.477.887-.675,1.356-.324.766-.751,1.661-1.746,1.373a1.939,1.939,0,0,1-1.266-2.249,24.506,24.506,0,0,1,.467-2.41c3.3-9.2,9.22-16.388,17.07-22.052,1.868-1.348,3.887-2.492,5.877-3.661a14.52,14.52,0,0,1,2.593-1.128c1.065-.371,2.181-.377,2.748.769.526,1.063-.3,1.828-1.057,2.369-1.448,1.037-2.964,1.984-4.491,2.9A45.209,45.209,0,0,0,267.528,243.97Z" fill="#4f0b2a"/>
    <path id="Path_116" data-name="Path 116" d="M310.358,209.489a4.742,4.742,0,0,1-.592,1.024,7.266,7.266,0,0,1-4.468,2.094,1.5,1.5,0,0,1-1.564-.848,1.236,1.236,0,0,1,.195-1.468,7.127,7.127,0,0,1,5.019-2.256A1.33,1.33,0,0,1,310.358,209.489Z" fill="#5c152d"/>
    <path id="Path_117" data-name="Path 117" d="M391.578,120.084a2.685,2.685,0,0,1,0,.311c-.135.993.02,2.342-1.261,2.493-1.026.12-1.437-1.084-1.76-1.919a17.509,17.509,0,0,1-.868-3.291,1.42,1.42,0,0,1,1.107-1.649,1.539,1.539,0,0,1,1.667.568A5.363,5.363,0,0,1,391.578,120.084Z" fill="#5a132d"/>
    <path id="Path_118" data-name="Path 118" d="M492.122,257.819a32.431,32.431,0,0,1,13.892,3.627,5.092,5.092,0,0,1,3.022,4.45,3.421,3.421,0,0,1-3.452,3.965,10.082,10.082,0,0,1-3.977-.835,39.251,39.251,0,0,0-13.569-2.36c-3.84.128-7.507.814-10.744,3.041a4.736,4.736,0,0,1-1.989.9,3.087,3.087,0,0,1-3.107-1.078,3.439,3.439,0,0,1-.369-3.586,6.367,6.367,0,0,1,3.164-3.39C480.2,260.005,485.518,257.769,492.122,257.819Z" fill="#4d0b2a"/>
    <path id="Path_119" data-name="Path 119" d="M512.231,402.664a22.04,22.04,0,0,1-6.789,3.906c-14.616,5.881-29.244,11.725-44.516,15.771a197.412,197.412,0,0,1-39.744,6.332c-5.253.291-10.495.372-15.745.461-.735.013-1.471-.011-2.206-.031-.556-.015-1.116-.18-1.253-.749-.193-.793.433-1.051,1.054-1.267a9.638,9.638,0,0,1,2.794-.411,319.958,319.958,0,0,0,32.01-2.688,5.394,5.394,0,0,0,1.145-.446c7.252-.615,14.26-2.454,21.259-4.306,14.138-3.741,27.685-9.175,41.266-14.509,1.853-.728,3.717-1.43,5.576-2.143,1.318.153,2.445-.663,3.718-.739C511.579,401.589,512.277,401.478,512.231,402.664Z" fill="#4e0d2b"/>
    <path id="Path_120" data-name="Path 120" d="M432.724,388.582a5.943,5.943,0,0,1-1.211-.258,1.094,1.094,0,0,1-.619-.65.983.983,0,0,1,.42-.774,5.082,5.082,0,0,1,1.443-.611,270.8,270.8,0,0,0,36.13-12.013,17.632,17.632,0,0,1,5.137-1.439c.494-.042,1.1-.071,1.242.627a1.022,1.022,0,0,1-.536,1.053,12.4,12.4,0,0,1-1.9,1.086c-12.392,5.26-25.01,9.837-38.229,12.583C433.981,388.314,433.366,388.446,432.724,388.582Z" fill="#50142f"/>
    <path id="Path_121" data-name="Path 121" d="M485.4,367.707a.866.866,0,0,1-.534.991c-.482.217-.727-.118-.83-.52a.737.737,0,0,1,.51-.928A.593.593,0,0,1,485.4,367.707Z" fill="#591c38"/>
    <path id="Path_122" data-name="Path 122" d="M536.642,387.842a4.833,4.833,0,0,1-.661,1.209,13.219,13.219,0,0,1-1.9,1.638,122.5,122.5,0,0,1-12.5,7.884,16.988,16.988,0,0,1-1.99.943c-1.036.4-2.4,1.317-3.075,0-.693-1.339.927-1.9,1.8-2.5,5-3.468,10.33-6.44,15.184-10.129a2.112,2.112,0,0,1,2.326-.489A1.563,1.563,0,0,1,536.642,387.842Z" fill="#50132f"/>
    <path id="Path_123" data-name="Path 123" d="M512.231,402.664c-.255-.661-.919-.608-1.431-.819a1.832,1.832,0,0,1,1.381-.508c.381-.006.9-.113.987.386C513.283,402.37,512.734,402.535,512.231,402.664Z" fill="#76717d"/>
    <path id="Path_124" data-name="Path 124" d="M572.532,331.887c0,1.789-.117,3.586.024,5.364a11.018,11.018,0,0,1-4.2,9.718,32.9,32.9,0,0,1-3.707,2.938,193.981,193.981,0,0,1-29.831,15.718A57.576,57.576,0,0,1,517.7,369.75c-1.152.093-2.311.114-3.467.145-7.361.2-12.488-3.042-16.108-9.523-4.584-8.209-7.006-17.087-9.185-26.088-2.053-8.478-3.933-17-6.111-25.446-.733-2.843-.177-4.861,2.064-6.653a42.054,42.054,0,0,1,11.4-5.99,491.788,491.788,0,0,1,50.386-16.34,36.626,36.626,0,0,1,8.039-1.316c4.211-.172,7.246,1.752,9.278,5.384a24.655,24.655,0,0,1,2.167,5.908c2.686,10.3,4.141,20.814,5.427,31.363C572.029,324.754,572.122,328.322,572.532,331.887Z" fill="#4c0a2a"/>
    <path id="Path_125" data-name="Path 125" d="M403.366,316.141a15.82,15.82,0,0,1,7.03,8.961,123.835,123.835,0,0,1,5.64,23.577c1.452,9.93,1.268,19.942,1.654,29.923a27.263,27.263,0,0,1-2.268,11.058,3.841,3.841,0,0,1-2.3,2.378c-14.995,5.939-30.781,9.23-46.188,13.781a55.372,55.372,0,0,1-17.143,2.327c-10.486-.3-19.49-4.4-24.732-13.813-6.57-11.8-11.39-24.377-13.3-37.894-.117-.832-.211-1.67-.379-2.493-1-4.876.665-8.656,4.666-11.51a50.537,50.537,0,0,1,11.494-5.843c17.882-6.833,36.023-12.9,54.287-18.618a12.241,12.241,0,0,0,1.407-.642c.495-.674,1.384-.166,1.943-.648l-.045.028c.5-.691,1.385-.188,1.957-.646l-.055.034c.5-.718,1.379-.235,1.983-.625l-.066.048c.649-.966,1.811-.111,2.561-.721l-.06.035c2.314-.906,4.724-.194,7.077-.423A4.72,4.72,0,0,1,403.366,316.141Z" fill="#4d0a2a"/>
    <path id="Path_126" data-name="Path 126" d="M403.366,316.141l-4.341-1.513q-.351-.174-.238-.355c.076-.122.152-.183.23-.183a2.924,2.924,0,0,1,3.15-1.918,5.447,5.447,0,0,0,.536.1C403.594,313.448,404.9,314.55,403.366,316.141Z" fill="#f7f1ed"/>
    <path id="Path_127" data-name="Path 127" d="M399.017,314.09a1.83,1.83,0,0,1,.007.538,40.811,40.811,0,0,0-7.568.21c.521-.912,1.416-.735,2.23-.743C395.463,314.078,397.24,314.09,399.017,314.09Z" fill="#fcdfae"/>
    <path id="Path_128" data-name="Path 128" d="M391.516,314.8a3.723,3.723,0,0,1-2.561.72C389.542,314.336,390.6,314.821,391.516,314.8Z" fill="#fcdfae"/>
    <path id="Path_129" data-name="Path 129" d="M387.093,316.067a2.327,2.327,0,0,1-1.957.645C385.571,315.837,386.35,316.008,387.093,316.067Z" fill="#fcdfae"/>
    <path id="Path_130" data-name="Path 130" d="M389.021,315.476a2.323,2.323,0,0,1-1.983.625C387.478,315.192,388.262,315.374,389.021,315.476Z" fill="#fcdfae"/>
    <path id="Path_131" data-name="Path 131" d="M385.181,316.685a2.242,2.242,0,0,1-1.944.648C383.673,316.478,384.447,316.64,385.181,316.685Z" fill="#fcdfae"/>
    <path id="Path_132" data-name="Path 132" d="M456.032,108.459a7.308,7.308,0,0,1-3.771,6.66c-4.288,2.673-8.288,5.762-12.573,8.427a25.713,25.713,0,0,1-7.958,2.926,4.917,4.917,0,0,1-5.736-2.864c-1.331-2.806-1.583-5.605.127-8.428a33.2,33.2,0,0,1,15.56-13.334,20.529,20.529,0,0,1,5.12-1.545C452.269,99.448,456.057,102.691,456.032,108.459Z" fill="#fff"/>
    <path id="Path_133" data-name="Path 133" d="M467.318,130.829c2.6.213,3.384,1.173,2.878,3.862a60.871,60.871,0,0,1-3.142,10.886,102.168,102.168,0,0,1-21.826,33.644,18.969,18.969,0,0,1-6.5,4.352c-.949.4-1.069-.166-1.136-.862,2.08-3.91,5-7.189,7.826-10.553a100.212,100.212,0,0,0,20.031-36.694A13.309,13.309,0,0,1,467.318,130.829Z" fill="#4e0a2a"/>
    <path id="Path_134" data-name="Path 134" d="M466.119,108.167a2.387,2.387,0,0,1,3.258,1.511c.675,1.658,1.289,3.329.03,4.98-.352.462-.949.3-1.456.321A8.007,8.007,0,0,1,466.119,108.167Z" fill="#55112c"/>
    <path id="Path_135" data-name="Path 135" d="M295.956,275.458a53.652,53.652,0,0,0-12.038,19.736,89.415,89.415,0,0,0-3.806,13.633,7.85,7.85,0,0,1-1.154,3.559,1.468,1.468,0,0,1-1.312.723,1.319,1.319,0,0,1-1.159-1.291,7.346,7.346,0,0,1,.005-2.191c2.432-12.179,6.334-23.738,14.335-33.536.863-1.057,1.784-2.065,2.678-3.1l2.795-2.5a4.506,4.506,0,0,1,1.8-1.221c.723-.185,1.526-.335,2.034.347a1.588,1.588,0,0,1-.362,2.246c-1.07.985-2.4,1.7-3.135,3.028l-.023.014A3.075,3.075,0,0,1,295.956,275.458Z" fill="#4f0b2a"/>
    <path id="Path_136" data-name="Path 136" d="M275.665,326.725c.232-1.536.438-3.077.709-4.606a6.7,6.7,0,0,1,.562-1.755,1.381,1.381,0,0,1,1.463-.93,1.305,1.305,0,0,1,1.08,1.334c.052,1.137.007,2.279,0,3.42a5.058,5.058,0,0,0-.526,3.359,6.845,6.845,0,0,1-1.076,3.893c-.211.352-.432.749-.937.715a1.088,1.088,0,0,1-1.011-1.036C275.781,329.661,275.746,328.191,275.665,326.725Z" fill="#57122c"/>
    <path id="Path_137" data-name="Path 137" d="M256.909,304.627c.142-10.419,1.849-20.491,6.824-29.8.939-1.758,2.024-3.441,3.1-5.123a3.951,3.951,0,0,1,1.768-1.744,1.515,1.515,0,0,1,1.748.271,1.2,1.2,0,0,1,.193,1.455c-.325.655-.752,1.259-1.136,1.884a59.827,59.827,0,0,0-8.916,29.537c-.135,3.464.083,6.942-.4,10.393-.072.52-.106,1.047-.19,1.565-.1.627-.251,1.345-.949,1.472-.806.148-1-.64-1.211-1.2a10.011,10.011,0,0,1-.833-3.668C256.918,307.991,256.909,306.309,256.909,304.627Z" fill="#4f0c2a"/>
    <path id="Path_138" data-name="Path 138" d="M256.821,277.524a5.673,5.673,0,0,1-1.019,2.933c-3.135,5.384-5.676,10.985-6.4,17.265a4.89,4.89,0,0,1-.381,1.517c-.868,1.839-2.815,1.966-3.979.267a5.636,5.636,0,0,1-.789-2.367,15.964,15.964,0,0,1,.622-7.462,56.117,56.117,0,0,1,5.572-12.281,6.777,6.777,0,0,1,2.08-2.319,2.711,2.711,0,0,1,2.966-.2A2.663,2.663,0,0,1,256.821,277.524Z" fill="#fffdfd"/>
    <path id="Path_139" data-name="Path 139" d="M259.173,325.8c.1-.826.083-1.88,1.255-1.73,1.122.143,1.355,1.184,1.33,2.154-.022.855-.261,1.805-1.34,1.722C259.142,327.846,259.293,326.689,259.173,325.8Z" fill="#671b30"/>
    <path id="Path_140" data-name="Path 140" d="M295.956,275.458a.633.633,0,0,1,.658-.546A.7.7,0,0,1,295.956,275.458Z" fill="#b86848"/>
    <path id="Path_141" data-name="Path 141" d="M270.233,402.667c4.825-4.316,10.342-5.237,16.413-3.291,4.615,1.48,8.327,4.369,11.755,7.68.751,1.258,1.516,2.509,2.251,3.776a10.423,10.423,0,0,1,1.7,4.7c.047,1.005.42,2.324-.873,2.74-1.063.342-1.674-.709-2.175-1.492-.735-1.151-1.4-2.349-2.029-3.564-2.658-5.168-7-8.284-12.345-10.176a13.1,13.1,0,0,0-7.469-.214,8.438,8.438,0,0,0-5.094,2.934c-.5.649-1.067,1.479-2.065.9s-.919-1.563-.625-2.521C269.829,403.638,270.045,403.157,270.233,402.667Z" fill="#4e0d2b"/>
    <path id="Path_142" data-name="Path 142" d="M502.651,136.25c-.1,2.148-1.811,4.866-4.523,6.9a4.785,4.785,0,0,1-7.42-1.933,13.837,13.837,0,0,1-.935-8.637c.7-3.3,4.259-5.8,7.223-5.348C500.321,127.741,502.782,131.049,502.651,136.25Z" fill="#fff"/>
    <path id="Path_143" data-name="Path 143" d="M505.9,147.313c1.7-.226,2.2.828,2.369,2.223a11.475,11.475,0,0,1-.795,4.928c-3.448,10.572-9.489,19.277-18.736,25.621-.815.5-1.334.426-1.327-.678a66.322,66.322,0,0,1,6.378-8.914,58.618,58.618,0,0,0,10.754-20.385A7.1,7.1,0,0,1,505.9,147.313Z" fill="#4e0b2a"/>
    <path id="Path_144" data-name="Path 144" d="M507.053,134.487c1.608-.108,2.241.928,2.505,2.258.32,1.606,1.138,3.253-.006,4.845-.8,1.111-1.639.448-2.449-.037q-.072-.316-.142-.634c-.373-.577.016-1.337-.455-1.89C506.6,137.5,505.889,135.883,507.053,134.487Z" fill="#5a162e"/>
    <path id="Path_145" data-name="Path 145" d="M487.408,179.407a1.309,1.309,0,0,0,1.327.678c-.965.807-1.771,1.878-3.195,1.923C485.626,180.756,486.553,180.107,487.408,179.407Z" fill="#893038"/>
    <path id="Path_146" data-name="Path 146" d="M506.506,139.029a1.977,1.977,0,0,1,.455,1.891A1.788,1.788,0,0,1,506.506,139.029Z" fill="#b86848"/>
    <path id="Path_147" data-name="Path 147" d="M437.582,330.431c.869.089,1.354.538,1.321,1.4a1.338,1.338,0,1,1-2.675-.087A1.244,1.244,0,0,1,437.582,330.431Z" fill="#fcf7f2"/>
    <path id="Path_148" data-name="Path 148" d="M456.832,326.007c.079-.708.411-1.042,1-1.06a1,1,0,0,1,1.06.9.906.906,0,0,1-.789,1.12A1.192,1.192,0,0,1,456.832,326.007Z" fill="#fdfbf9"/>
    <path id="Path_149" data-name="Path 149" d="M450.693,333.633c-.075.613-.412.972-1.013.887a.932.932,0,0,1-.773-1.145.77.77,0,0,1,.83-.742A.993.993,0,0,1,450.693,333.633Z" fill="#fdf9f5"/>
    <path id="Path_150" data-name="Path 150" d="M296.387,390.362a2.62,2.62,0,0,1-3.614,2.522,10.909,10.909,0,0,1-2.89-1.871c-3.246-2.432-7.078-3.068-10.957-3.214a7.4,7.4,0,0,0-5.466,2.048,10.522,10.522,0,0,1-2.374,1.509,2.231,2.231,0,0,1-2.732-3.506c2.829-3.509,6.434-5.914,10.995-5.889,5.182.028,10.2,1.147,14.452,4.452A6.735,6.735,0,0,1,296.387,390.362Z" fill="#fffffd"/>
    <path id="Path_151" data-name="Path 151" d="M524.736,176.332c.035,2.814-2.1,4.611-3.228,6.878-1.741,1.648-2.8,3.823-4.383,5.617-2.874,3.25-6.437,5.492-10.074,7.686h.005c-.327.409-.928.272-1.275.64-.182,0-.364,0-.546-.007a.933.933,0,0,1-.163-1.258c1.666-1.927,3.739-3.485,5.136-5.657a60.921,60.921,0,0,0,8.851-10.59c.648-.954,1.275-1.929,1.995-2.826C522.287,175.277,522.552,175.269,524.736,176.332Z" fill="#4f0c2a"/>
    <path id="Path_152" data-name="Path 152" d="M523.682,167.591c-1.484-3.046-.856-5.762-.588-8.429a1.62,1.62,0,0,1,1.7-1.549c1.008.046,1.44.9,1.577,1.72C526.868,162.345,526.515,165.131,523.682,167.591Z" fill="#58132d"/>
    <path id="Path_153" data-name="Path 153" d="M415.425,552.322a8.9,8.9,0,0,0-2.112-6.419c-.525-.66-1.192-1.3-2.142-1.009a2.214,2.214,0,0,0-1.475,2.2,6.859,6.859,0,0,0,.683,3.668,21.6,21.6,0,0,0,3.37,4.923c.487.55,1.005,1.076,1.455,1.655a1.067,1.067,0,0,1,.043,1.436,1.225,1.225,0,0,1-1.435.309,2.851,2.851,0,0,1-.849-.4c-3.51-2.874-6.3-6.237-6.681-10.969-.3-3.777,2.435-6.491,5.883-6.109a5.375,5.375,0,0,1,3.486,1.963,14.935,14.935,0,0,1,3.573,7.918,6.041,6.041,0,0,1-.012,1.572c-.207,1.686-1.353,2.97-2.485,2.7-1.519-.365-1.363-1.642-1.336-2.8C415.4,552.741,415.414,552.532,415.425,552.322Z" fill="#50102e"/>
    <path id="Path_154" data-name="Path 154" d="M512.721,207.959a30.766,30.766,0,0,1,9.629,4.347,17.809,17.809,0,0,1,6.9,8.265c-.153.7.254,1.479-.282,2.149-1.213.047-1.816-.9-2.561-1.6a63.486,63.486,0,0,0-5.649-5.026,20.649,20.649,0,0,0-10.648-4.34c-1.12-.1-2.248-.326-2.253-1.669-.006-1.4,1.1-1.938,2.346-2.072C511.034,207.921,511.881,207.971,512.721,207.959Z" fill="#500d2b"/>
    <path id="Path_155" data-name="Path 155" d="M532.971,233.223a1.42,1.42,0,0,1-1.478-1.369.967.967,0,0,1,.973-1.256c.757-.044,1.1.482,1.191,1.148C533.741,232.384,533.632,232.98,532.971,233.223Z" fill="#65182f"/>
    <path id="Path_156" data-name="Path 156" d="M509.521,740.239c-.2.95-.561,1.869-1.744,1.669-1.1-.186-1.377-1.145-1.3-2.131.072-.912.585-1.622,1.559-1.547C509.169,738.317,509.495,739.2,509.521,740.239Z" fill="#fdefe2"/>
    <path id="Path_157" data-name="Path 157" d="M505.781,197.152a1.417,1.417,0,0,1,1.275-.64A1.172,1.172,0,0,1,505.781,197.152Z" fill="#994a42"/>
    <path id="Path_158" data-name="Path 158" d="M505.072,195.887q.081.629.163,1.258C504.479,196.817,504.478,196.391,505.072,195.887Z" fill="#994a42"/>
    <path id="Path_159" data-name="Path 159" d="M548.767,343.087a160.835,160.835,0,0,1-12.471,16.67c-1.311,1.6-1.435,1.58-2.924.125-11.1-10.844-24.416-17.793-39.133-22.252a2.529,2.529,0,0,1-2.052-2q-3.456-13.931-6.99-27.843a2.986,2.986,0,0,1,1.568-3.691,55.4,55.4,0,0,1,9.688-4.589c12.149-4.461,24.374-8.7,36.778-12.412a11.87,11.87,0,0,1,1.55-.256c1.63-.674,2.581.217,3.366,1.47a82.5,82.5,0,0,1,12.781,36.9C551.473,331.32,551.309,337.345,548.767,343.087Z" fill="#d8a86d"/>
    <path id="Path_160" data-name="Path 160" d="M548.767,343.087c.551-4.031,1.279-8.048,1.589-12.1a38.274,38.274,0,0,0-.411-7.774,90.417,90.417,0,0,0-2.728-12.874,77.222,77.222,0,0,0-6.7-16.2c-1.059-1.931-2.261-3.784-3.28-5.734a2.53,2.53,0,0,0-2.461-1.573c3.313-1.31,6.822-1.967,10.2-3.066,1.439-.469,2.187-.1,2.971,1.284a124.778,124.778,0,0,1,9.558,20.851c1.6,4.658,3.066,9.366,4.729,14a5.083,5.083,0,0,1-.717,5.261C557.152,331.057,553.541,337.485,548.767,343.087Z" fill="#bd9c6b"/>
    <path id="Path_161" data-name="Path 161" d="M530.359,364a44.347,44.347,0,0,1-9.119,2.428,30,30,0,0,1-10.952.327A10.96,10.96,0,0,1,502.9,362.4,58.257,58.257,0,0,1,494.113,343C503.24,344.671,524.828,357.176,530.359,364Z" fill="#b0dace"/>
    <path id="Path_162" data-name="Path 162" d="M542.5,357.715c3.738-4.81,7.584-9.54,11.184-14.451,3.583-4.887,6.918-9.955,10.583-15.265,1.673,4.752,2.34,9.3,3.432,13.748a2.6,2.6,0,0,1-1.071,2.779,38.672,38.672,0,0,1-4.018,3.034c-6.239,3.686-12.327,7.639-18.878,10.78C543.009,358.752,542.463,358.81,542.5,357.715Z" fill="#bd9c6b"/>
    <path id="Path_163" data-name="Path 163" d="M566.483,312.187c-1.886-5.23-3.73-10.475-5.669-15.685a74.371,74.371,0,0,0-5.613-11.608,8.527,8.527,0,0,1-1.37-2.772c4.251-.685,6.511.449,8.206,4.08a40.388,40.388,0,0,1,2.308,7.838,111.888,111.888,0,0,1,2.856,16.1C567.246,310.92,568.062,311.974,566.483,312.187Z" fill="#fdfcfd"/>
    <path id="Path_164" data-name="Path 164" d="M566.483,312.187c.773-.5.411-1.39.718-2.049a8.374,8.374,0,0,1,.671,3.737c.058.612.566,1.435-.674,1.442C566.978,314.27,566.315,313.323,566.483,312.187Z" fill="#ddced6"/>
    <path id="Path_165" data-name="Path 165" d="M542.5,357.715c.22.583.749.559,1.232.625-.732.931-1.778,1.179-2.984,1.643A2.72,2.72,0,0,1,542.5,357.715Z" fill="#844f52"/>
    <path id="Path_166" data-name="Path 166" d="M567.2,315.317c.521-.343.478-.948.674-1.442a7.875,7.875,0,0,1,.526,4,.364.364,0,0,1-.617-.033Q567.49,316.58,567.2,315.317Z" fill="#c5aab6"/>
    <path id="Path_167" data-name="Path 167" d="M567.781,317.846a1.732,1.732,0,0,0,.617.033c.93.933.509,2.046.414,3.133A7.025,7.025,0,0,1,567.781,317.846Z" fill="#8d5970"/>
    <path id="Path_168" data-name="Path 168" d="M338.313,336.2a223.28,223.28,0,0,1,23.68-8.566q13.54-4.225,27.1-8.4a23.219,23.219,0,0,1,6.459-1.334c5.306-.088,9.085,2.213,11.124,7.171a91.712,91.712,0,0,1,5.571,20.971c.37,2.387.568,4.8,1.006,7.176.292,1.582.168,2.847-1.216,3.892a7.879,7.879,0,0,0-1.629,1.911c-7.5,11.063-14.818,22.238-19.264,34.976a4.442,4.442,0,0,1-3.4,3.207c-6.187,1.659-12.33,3.486-18.482,5.275a5.447,5.447,0,0,1-4.218-.287c-2.531-1.241-5.309-1.95-7.779-3.362-3.415-2.995-5.383-7.031-7.246-10.976-7.007-14.833-11.828-30.33-13.074-46.794C336.811,339.315,336.461,337.424,338.313,336.2Z" fill="#d8a86d"/>
    <path id="Path_169" data-name="Path 169" d="M338.313,336.2a6.931,6.931,0,0,0-.551,4.619c.865,5.561,1.137,11.2,2.492,16.7a168.486,168.486,0,0,0,10.006,29.032c1.6,3.545,3.87,6.715,5.815,10.068.42.723.793,1.473,1.188,2.21-8.508-3.351-16.842-7.1-25.131-10.953-2.573-1.2-5.124-2.456-7.766-3.477a3.467,3.467,0,0,1-2.152-2.049c-3.13-7.25-5.967-14.6-7.463-22.386a73.307,73.307,0,0,1-1.129-9.053,5.251,5.251,0,0,1,1.684-4.223,27.212,27.212,0,0,1,9.6-5.933A122.319,122.319,0,0,1,338.313,336.2Z" fill="#bd9c6b"/>
    <path id="Path_170" data-name="Path 170" d="M413.326,362.865c.883.8.61,1.591.627,2.274.122,4.842.2,9.686.27,14.53a17.866,17.866,0,0,1-.088,1.893c-.449,4.989-2.271,8.807-7.759,10.019-2.547.562-4.945,1.773-7.438,2.61a9.5,9.5,0,0,1-4.155.814C399.46,383.225,406.575,373.2,413.326,362.865Z" fill="#b0dace"/>
    <path id="Path_171" data-name="Path 171" d="M359.218,404.228c-15.768,4.957-30.841-4.457-34.032-15.633C325.931,388.748,357.226,403.124,359.218,404.228Z" fill="#bd9c6b"/>
    <path id="Path_172" data-name="Path 172" d="M516.026,327.2a14.519,14.519,0,0,1-2.471,7.717c-1.816,2.7-4.333,3.928-7.6,3.145a10.448,10.448,0,0,0-3.087-.25,8.384,8.384,0,0,1-7.424-3.368,16.311,16.311,0,0,1-3.464-8.655,11.246,11.246,0,0,1,14.438-11.821A13.467,13.467,0,0,1,516.026,327.2Z" fill="#4d0b2a"/>
    <path id="Path_173" data-name="Path 173" d="M535.06,332.067c-.93-.165-1.558-.622-1.535-1.626.022-.951.525-1.641,1.5-1.587a1.579,1.579,0,0,1,1.574,1.6C536.607,331.41,535.957,331.909,535.06,332.067Z" fill="#f8efe5"/>
    <path id="Path_174" data-name="Path 174" d="M528.963,346.663c0,.74-.467,1.075-1.143,1.155a1.085,1.085,0,0,1-.21-2.156A1.2,1.2,0,0,1,528.963,346.663Z" fill="#f6e9db"/>
    <path id="Path_175" data-name="Path 175" d="M383.485,369.133c-6.841.055-10.868-2.608-12.55-8.226a15.551,15.551,0,0,1,5.988-16.737c3.682-2.611,12.516-1.988,15.629.624a16.6,16.6,0,0,1,6.262,12.609c.144,5.135-6.153,11.167-11.859,11.714C385.808,369.227,384.642,369.133,383.485,369.133Z" fill="#4c0a2a"/>
    <path id="Path_176" data-name="Path 176" d="M359.613,371.045c-.858-.094-1.465-.464-1.483-1.324a1.4,1.4,0,0,1,2.8-.053C360.953,370.528,360.353,370.916,359.613,371.045Z" fill="#f6eadc"/>
    <path id="Path_177" data-name="Path 177" d="M500.906,327.537c-3.172.029-5.683-1.862-5.68-4.279,0-2.07,2.581-4.694,4.715-4.8,2.385-.115,4.813,2.583,4.773,5.305A3.712,3.712,0,0,1,500.906,327.537Z" fill="#fcfcfc"/>
    <path id="Path_178" data-name="Path 178" d="M507.491,317.037c3.554.425,5.871,3.294,5.474,7.187C511.24,321.355,510.008,318.7,507.491,317.037Z" fill="#dbccd2"/>
    <path id="Path_179" data-name="Path 179" d="M511.089,330.754c-.169.983-.6,1.817-1.755,1.806a1.4,1.4,0,0,1-1.455-1.668,1.666,1.666,0,0,1,1.9-1.656C510.665,329.3,511.018,329.9,511.089,330.754Z" fill="#ece3e7"/>
    <path id="Path_180" data-name="Path 180" d="M382.469,351.088c.032,2.319-2.314,4.941-4.442,4.965a3.056,3.056,0,0,1-3.059-3.289c-.081-2.813,2-5.39,4.28-5.311A3.525,3.525,0,0,1,382.469,351.088Z" fill="#fcfbfb"/>
    <path id="Path_181" data-name="Path 181" d="M386.118,346.663c1.015-.279,1.35-.5,1.588-.419a10.3,10.3,0,0,1,6.708,6.921.952.952,0,0,1-.472,1.322c-.618.259-.979-.149-1.23-.635-.24-.464-.435-.953-.633-1.438C391.048,349.893,389.142,348.189,386.118,346.663Z" fill="#e8dee3"/>
    <path id="Path_182" data-name="Path 182" d="M392.876,359.383c.957.13,1.563.655,1.464,1.613a1.439,1.439,0,0,1-1.716,1.335,1.29,1.29,0,0,1-1.288-1.414C391.349,359.937,391.962,359.481,392.876,359.383Z" fill="#f1ecef"/>
  </g>
</svg>
